<svg width="52" height="52" viewBox="0 0 52 52" fill="none" xmlns="http://www.w3.org/2000/svg">
<g clip-path="url(#clip0_93_24311)">
<path d="M50.8134 42.7282L44.9226 46.7357L41.2886 49.2077C40.8703 49.4918 40.3005 49.3833 40.0164 48.965L14.353 11.248L12.3165 8.2561C12.0325 7.83779 12.1409 7.26799 12.5593 6.98395L13.642 6.24717L22.084 0.502684C22.5024 0.218644 23.0722 0.327095 23.3562 0.745408L51.0113 41.3889L51.0561 41.456C51.3401 41.8726 51.2317 42.4424 50.8134 42.7282Z" fill="#FF4A85" fill-opacity="0.6"/>
<path opacity="0.11" d="M24.0305 2.95576C24.046 2.97813 24.0632 2.99879 24.0787 3.02289C24.0787 3.02289 25.4782 5.92354 23.4986 7.22668C21.5172 8.5281 40.188 35.8682 39.8902 36.9114C39.5924 37.9563 22.4226 11.2394 21.0334 11.7937C19.6442 12.348 11.3692 8.85001 14.3817 7.64843C17.3943 6.44686 19.3671 9.21151 20.0298 7.45219C20.3776 6.53121 20.5084 5.14544 20.5549 4.03511C20.6289 2.22242 22.9425 1.50285 24.0305 2.95576Z" fill="#E9B5BE" fill-opacity="0.6"/>
<path opacity="0.44" d="M48.1797 41.9948C48.2072 41.9604 48.2244 41.9191 48.2313 41.8743C48.2434 41.7865 48.233 41.6919 48.178 41.6178C48.1263 41.549 48.0489 41.4818 47.9593 41.475C47.6288 41.4457 47.3 41.4164 46.9695 41.3872C46.639 41.3579 46.3102 41.3286 45.9797 41.2994C45.6491 41.2701 45.3204 41.2408 44.9898 41.2116C44.6593 41.1823 44.3305 41.153 44 41.1238C43.6695 41.0945 43.3407 41.0653 43.0102 41.036C42.9688 41.0325 42.9293 41.0291 42.8879 41.0257C42.8432 41.0153 42.8001 41.017 42.7571 41.0291C42.7106 41.0343 42.6693 41.0515 42.6314 41.079C42.6091 41.0928 42.5884 41.11 42.5729 41.1289C39.8461 37.1214 37.1194 33.1139 34.3926 29.1063C31.6503 25.0747 28.9063 21.0448 26.164 17.0131C24.6164 14.7391 23.0689 12.465 21.523 10.191C21.4972 10.1531 21.4679 10.1239 21.4369 10.1015C21.4662 10.0464 21.4782 9.98615 21.4782 9.91902C21.4748 9.54718 21.4817 9.17707 21.4972 8.80524C21.5006 8.714 21.5058 8.62104 21.5109 8.5298C21.5316 8.20617 21.5591 7.88426 21.5953 7.56407C21.6332 7.22838 21.6779 6.89442 21.7313 6.56046C21.7847 6.2265 21.8484 5.89254 21.9189 5.5603C21.9895 5.22806 22.0687 4.89926 22.1548 4.57046C22.2408 4.24511 22.3355 3.91975 22.4388 3.59956C22.4457 3.57719 22.4543 3.55308 22.4612 3.53071C22.549 3.2656 22.6402 3.0005 22.7383 2.73884C22.759 2.69924 22.7693 2.65621 22.7676 2.61145C22.7745 2.56669 22.7693 2.52366 22.7521 2.48062C22.7246 2.39971 22.6557 2.31536 22.5765 2.28265C22.4973 2.24822 22.4027 2.23445 22.32 2.26716C22.2391 2.29987 22.153 2.3584 22.1221 2.44275C21.9413 2.92648 21.7778 3.41709 21.6314 3.91115C21.4937 4.3811 21.3715 4.85622 21.2665 5.33479C21.1632 5.81163 21.0754 6.29364 21.0066 6.77737C20.9377 7.26109 20.8843 7.74654 20.8499 8.23543C20.8138 8.74843 20.7931 9.26314 20.7931 9.77786V9.82089C20.5039 9.75892 20.213 9.69695 19.9238 9.63498C19.5037 9.54546 19.0837 9.45594 18.6619 9.36643C18.2419 9.27691 17.8219 9.1874 17.4001 9.09788C16.9801 9.00837 16.5601 8.91885 16.1383 8.82934C15.7183 8.73982 15.2982 8.6503 14.8765 8.56079C14.8231 8.54874 14.7715 8.53841 14.7181 8.52636C14.6337 8.50915 14.5322 8.53152 14.4616 8.57973C14.422 8.60555 14.391 8.63825 14.3686 8.67785C14.3411 8.71228 14.3239 8.75359 14.317 8.79835C14.3049 8.88614 14.3153 8.98082 14.3704 9.05485C14.4255 9.12887 14.4978 9.17879 14.589 9.19773C15.009 9.28724 15.4291 9.37676 15.8508 9.46627C16.2708 9.55579 16.6909 9.6453 17.1126 9.73482C17.5327 9.82434 17.9527 9.91385 18.3745 10.0034C18.7945 10.0929 19.2145 10.1824 19.6363 10.2719C20.0563 10.3614 20.4764 10.4509 20.8981 10.5405C20.9136 10.5439 20.9274 10.5473 20.9429 10.5508C20.9463 10.5577 20.9498 10.5646 20.9549 10.5714C23.7127 14.6237 26.4687 18.6743 29.2265 22.7266C31.9688 26.7583 34.7128 30.7882 37.455 34.8198C38.9802 37.0611 40.5054 39.3025 42.0307 41.5455C42.0186 41.5524 42.0066 41.5576 41.9928 41.5645C41.9411 41.5989 41.9033 41.6437 41.8757 41.7005C41.7724 42.0069 41.6709 42.3133 41.5676 42.6214C41.4643 42.9296 41.3627 43.2343 41.2594 43.5424C41.1562 43.8506 41.0546 44.1553 40.9513 44.4634C40.848 44.7715 40.7465 45.0762 40.6432 45.3844C40.5416 45.6891 40.4383 45.9955 40.3367 46.3002C40.323 46.3398 40.3109 46.3776 40.2972 46.4172C40.2765 46.4568 40.2662 46.4999 40.2679 46.5446C40.261 46.5894 40.2662 46.6324 40.2834 46.6755C40.2972 46.7202 40.3213 46.7598 40.3557 46.7908C40.3832 46.827 40.4177 46.8545 40.4607 46.8734C40.5399 46.9079 40.6346 46.9216 40.7172 46.8889C40.7447 46.8751 40.7723 46.8614 40.7998 46.8476C40.8515 46.8132 40.8893 46.7684 40.9169 46.7116C41.0202 46.4052 41.1217 46.0988 41.225 45.7906C41.3283 45.4842 41.4299 45.1778 41.5332 44.8697C41.6364 44.5615 41.738 44.2568 41.8413 43.9487C41.9446 43.6423 42.0461 43.3358 42.1494 43.0277C42.251 42.723 42.3543 42.4166 42.4559 42.1119C42.4696 42.0723 42.4817 42.0344 42.4954 41.9948C42.5161 41.9552 42.5264 41.9122 42.5247 41.8674C42.5299 41.8296 42.5264 41.79 42.5144 41.7538C42.5643 41.7297 42.6108 41.6953 42.6452 41.6523C42.6796 41.6746 42.7192 41.6919 42.7588 41.6953C43.0893 41.7246 43.4181 41.7538 43.7487 41.7831C44.0792 41.8124 44.408 41.8416 44.7385 41.8709C45.069 41.9002 45.3978 41.9294 45.7283 41.9587C46.0589 41.9879 46.3876 42.0172 46.7182 42.0465C47.0487 42.0757 47.3775 42.105 47.708 42.1343C47.7493 42.1377 47.7889 42.1412 47.8302 42.1446C47.875 42.1549 47.918 42.1532 47.9611 42.1412C48.0075 42.136 48.0489 42.1188 48.0867 42.0912C48.1263 42.0671 48.1573 42.0344 48.1797 41.9948Z" fill="#FE0161" fill-opacity="0.7"/>
<path d="M13.7988 6.12841C13.8112 6.12664 13.8201 6.12841 13.8219 6.12841H13.7988Z" fill="#FE0161" fill-opacity="0.7"/>
<path opacity="0.22" d="M50.8134 42.7282L44.9226 46.7357L41.2886 49.2077C40.8703 49.4918 40.3005 49.3833 40.0164 48.965L14.353 11.248L12.3165 8.2561C12.0325 7.83778 12.1409 7.26798 12.5593 6.98394L13.642 6.24716C13.5629 6.42275 13.5663 6.84623 13.9846 7.86533C14.0845 8.10805 14.2084 8.38348 14.3599 8.69851C14.4356 8.85688 14.52 9.02559 14.6112 9.20462C14.6887 9.35438 14.7696 9.51276 14.8591 9.67802C15.3807 10.6592 16.1089 11.9125 17.1142 13.5134C19.3607 17.0906 22.9913 22.3961 28.808 30.2666C33.8571 37.099 38.1676 40.5867 41.7585 42.0603C41.972 42.148 42.1837 42.229 42.392 42.303C44.6523 43.1017 46.6147 43.0948 48.2845 42.6387C49.3002 42.3615 50.2091 41.9191 51.0113 41.3906L51.0561 41.4577C51.3401 41.8726 51.2317 42.4424 50.8134 42.7282Z" fill="#FE0161" fill-opacity="0.7"/>
<path opacity="0.22" d="M49.4468 41.2185L48.2831 42.6369L44.9228 46.734L41.2888 49.206C40.8705 49.49 40.3007 49.3816 40.0167 48.9633L14.3516 11.248L17.1128 13.5134L30.3266 24.3517L31.2872 25.1401L32.1944 25.8838L34.5855 27.8445L49.3194 39.9291C49.7102 40.251 49.767 40.8277 49.4468 41.2185Z" fill="#FE0161" fill-opacity="0.7"/>
<path d="M47.3844 41.833L40.0786 50.7398C39.7584 51.1306 39.1817 51.1874 38.7892 50.8672L0.717578 19.6401C0.326809 19.3199 0.270001 18.7432 0.590191 18.3507L7.89603 9.4439C8.21622 9.05313 8.79291 8.99632 9.1854 9.31651L47.257 40.5436C47.6478 40.8656 47.7046 41.4422 47.3844 41.833Z" fill="#FF4A85" fill-opacity="0.6"/>
<path opacity="0.11" d="M10.4568 11.248C10.4792 11.2635 10.4998 11.2807 10.5222 11.2979C10.5222 11.2979 12.6843 13.6856 11.1522 15.4931C9.62015 17.3006 35.2526 38.2524 35.2612 39.3386C35.2698 40.4249 11.2521 19.6469 10.0781 20.5714C8.9023 21.4958 -0.023428 20.4784 2.52604 18.4746C5.07551 16.4709 7.75065 18.5659 7.88837 16.6912C7.96067 15.71 7.69556 14.3432 7.42702 13.2638C6.98633 11.5045 9.00387 10.16 10.4568 11.248Z" fill="#E9B5BE" fill-opacity="0.6"/>
<path opacity="0.44" d="M44.6501 41.8743C44.6656 41.833 44.6707 41.79 44.6656 41.7452C44.6535 41.6574 44.6156 41.5696 44.5416 41.5145C44.4728 41.4629 44.3781 41.4216 44.292 41.4388C43.9666 41.5042 43.643 41.5696 43.3177 41.635C42.9923 41.7004 42.6687 41.7659 42.3433 41.8313C42.018 41.8967 41.6943 41.9621 41.369 42.0275C41.0436 42.0929 40.72 42.1584 40.3946 42.2238C40.0693 42.2892 39.7456 42.3546 39.4203 42.42C39.3807 42.4286 39.3394 42.4355 39.2998 42.4441C39.255 42.4476 39.2137 42.4596 39.1758 42.4837C39.1328 42.5009 39.0984 42.5285 39.0691 42.5663C39.0519 42.587 39.0364 42.6077 39.0261 42.6318C35.2785 39.5572 31.5292 36.4827 27.7816 33.4082C24.0116 30.3165 20.2416 27.223 16.4716 24.1313C14.3456 22.3875 12.2179 20.6419 10.0919 18.8981C10.0575 18.8688 10.0213 18.8499 9.98518 18.8361C9.99723 18.7741 9.99206 18.7139 9.97313 18.6502C9.86468 18.2956 9.76655 17.9375 9.67704 17.5777C9.65466 17.4882 9.634 17.3987 9.61335 17.3092C9.54105 16.9942 9.47735 16.6774 9.42054 16.359C9.36201 16.0267 9.31037 15.6927 9.26733 15.3588C9.2243 15.0231 9.18987 14.6857 9.16405 14.3466C9.13823 14.0092 9.12101 13.67 9.11068 13.3309C9.10207 12.9935 9.10035 12.6561 9.10896 12.3187C9.10896 12.2946 9.11068 12.2705 9.11068 12.2464C9.11929 11.9675 9.13306 11.6869 9.15372 11.4081C9.16233 11.3633 9.1606 11.3203 9.14683 11.2789C9.13995 11.2342 9.12273 11.1946 9.09519 11.1584C9.04699 11.0896 8.95575 11.0276 8.86968 11.019C8.78361 11.0087 8.68893 11.0224 8.61835 11.0775C8.54949 11.1309 8.48407 11.2118 8.47891 11.303C8.44104 11.8178 8.42382 12.3342 8.42382 12.8506C8.42382 13.3412 8.44104 13.8319 8.47719 14.3208C8.51162 14.8079 8.56498 15.2951 8.63556 15.7788C8.70614 16.2625 8.79221 16.7428 8.89722 17.2214C9.00739 17.7241 9.13306 18.2233 9.27938 18.7173C9.28283 18.7311 9.28799 18.7449 9.29143 18.7587C8.99534 18.781 8.70098 18.8034 8.40489 18.8258C7.97624 18.8585 7.5476 18.8912 7.11896 18.9239C6.69032 18.9566 6.26168 18.9893 5.83304 19.022C5.4044 19.0547 4.97575 19.0875 4.54711 19.1202C4.11847 19.1529 3.68983 19.1856 3.26119 19.2183C3.20782 19.2217 3.15274 19.2269 3.09937 19.2303C3.0133 19.2372 2.92378 19.2871 2.8687 19.3543C2.83771 19.3887 2.81705 19.43 2.80845 19.4748C2.79295 19.5161 2.78779 19.5591 2.79295 19.6039C2.805 19.6917 2.84287 19.7795 2.9169 19.8346C2.99092 19.8896 3.07355 19.9172 3.16651 19.9103L4.45243 19.8122C4.45243 19.8122 5.30972 19.7468 5.73836 19.7141C6.167 19.6814 6.59564 19.6486 7.02428 19.6159L8.31021 19.5178C8.31021 19.5178 9.16749 19.4524 9.59613 19.4197C9.61162 19.418 9.62712 19.418 9.64261 19.4163C9.64777 19.4214 9.65294 19.4266 9.65982 19.4317C13.4487 22.539 17.2377 25.6479 21.0283 28.7551C24.7983 31.8469 28.5683 34.9403 32.3382 38.032C34.435 39.7518 36.5317 41.4715 38.6267 43.1912C38.6164 43.2016 38.606 43.2102 38.5957 43.2205C38.5561 43.2687 38.532 43.3221 38.5217 43.384C38.5096 43.7077 38.4976 44.0313 38.4855 44.3532C38.4735 44.6768 38.4614 45.0005 38.4494 45.3224C38.4373 45.646 38.4253 45.9697 38.4132 46.2916C38.4012 46.6152 38.3891 46.9388 38.3771 47.2607C38.365 47.5826 38.353 47.9046 38.3409 48.2265C38.3392 48.2678 38.3375 48.3091 38.3358 48.3487C38.3272 48.3935 38.3289 48.4365 38.3427 48.4778C38.3495 48.5226 38.3668 48.5622 38.3943 48.5983C38.4201 48.6379 38.4546 48.6689 38.4959 48.6895C38.532 48.7171 38.5733 48.7326 38.6198 48.7395C38.7059 48.7498 38.8006 48.736 38.8711 48.6809C38.8935 48.6603 38.9159 48.6396 38.9383 48.619C38.9779 48.5708 39.002 48.5174 39.0123 48.4554C39.0244 48.1318 39.0364 47.8082 39.0485 47.4862C39.0605 47.1626 39.0726 46.839 39.0846 46.5171C39.0967 46.1934 39.1087 45.8698 39.1208 45.5479C39.1328 45.2243 39.1449 44.9006 39.1569 44.5787C39.169 44.2568 39.181 43.9349 39.1931 43.613C39.1948 43.5717 39.1965 43.5303 39.1982 43.4908C39.2068 43.446 39.2051 43.403 39.1913 43.3616C39.1862 43.3238 39.1724 43.2876 39.15 43.2549C39.1913 43.217 39.224 43.1706 39.2464 43.1206C39.286 43.1327 39.3273 43.1379 39.3686 43.1293C39.694 43.0638 40.0176 42.9984 40.343 42.933C40.6683 42.8676 40.992 42.8022 41.3173 42.7368C41.6427 42.6713 41.9663 42.6059 42.2917 42.5405C42.617 42.4751 42.9407 42.4097 43.266 42.3443C43.5914 42.2789 43.915 42.2134 44.2404 42.148C44.2799 42.1394 44.3213 42.1325 44.3609 42.1239C44.4056 42.1205 44.4469 42.1084 44.4848 42.0843C44.5278 42.0671 44.5623 42.0396 44.5915 42.0017C44.6208 41.9604 44.6397 41.9191 44.6501 41.8743Z" fill="#FE0161" fill-opacity="0.7"/>
<path d="M1.53711 17.1769C1.54775 17.1715 1.55663 17.1715 1.5584 17.1698L1.53711 17.1769Z" fill="#FE0161" fill-opacity="0.7"/>
<path opacity="0.22" d="M47.3844 41.833L40.0786 50.7398C39.7584 51.1305 39.1817 51.1874 38.7892 50.8672L0.717578 19.64C0.326809 19.3198 0.270001 18.7431 0.590191 18.3507L1.41993 17.3384C1.32869 17.9874 2.96924 21.1205 22.7539 36.0954C36.9576 46.8476 43.8847 44.4134 47.1951 40.4937L47.257 40.5436C47.6478 40.8655 47.7046 41.4422 47.3844 41.833Z" fill="#FE0161" fill-opacity="0.7"/>
</g>
<defs>
<clipPath id="clip0_93_24311">
<rect width="51.6436" height="51.6436" fill="white"/>
</clipPath>
</defs>
</svg>
