<svg width="139" height="53" viewBox="0 0 139 53" fill="none" xmlns="http://www.w3.org/2000/svg">
<path d="M18.0942 27.2367C18.0868 26.7819 18.0538 26.3278 17.9956 25.8765C17.9487 25.5717 17.8923 25.3003 17.884 25.2554C17.7965 24.866 17.6894 24.4814 17.563 24.1028C17.3904 23.6012 16.931 22.6572 16.5316 22.0516C16.1324 21.4458 15.2819 20.5365 14.6367 20.0084C13.9917 19.4802 12.7781 18.854 11.9939 18.5742C11.2096 18.2945 9.87838 18.0999 9.03239 18.0945C8.1864 18.0891 6.8589 18.3467 6.08668 18.6157C5.31445 18.8846 4.23475 19.5078 3.63352 19.9538C3.03232 20.4 2.24132 21.2422 1.86677 21.7555C1.49222 22.269 1.01105 23.1242 0.790083 23.6679C0.569115 24.2115 0.34279 25.0279 0.240855 25.5467C0.13892 26.0656 0.0835899 26.927 0.103701 27.3879C0.128036 27.886 0.182678 28.3821 0.26733 28.8734C0.363906 29.3734 0.915162 30.5753 1.01777 30.796L0.801487 30.2646L0.633822 29.7478L0.494343 29.2216L0.388055 28.6896L0.305897 28.0861L0.272371 27.5474L0.266325 27.0051L0.299869 26.4014L0.36692 25.8651L0.462492 25.3333L0.608018 24.7472L0.770306 24.2331L0.96478 23.7281L1.18776 23.2372L1.47445 22.7067L1.76149 22.2492L2.07432 21.8082L2.45693 21.3399L2.82577 20.946L3.21875 20.5737L3.63185 20.2242L4.11907 19.8673L4.57375 19.5758L5.04552 19.3125L5.53172 19.0789L6.08768 18.8547L6.59937 18.6864L7.11909 18.5517L7.70353 18.4372L8.23468 18.3716L8.76816 18.3379L9.30231 18.3349L9.89313 18.3719L10.4226 18.4392L10.9463 18.5379L11.5191 18.6837L12.0261 18.852L12.5216 19.0462L13.0581 19.2981L13.5242 19.5576L13.9738 19.8451L14.4071 20.1582L14.8628 20.5386L15.2507 20.9069L15.6155 21.2981L15.9934 21.7572L16.3046 22.1949L16.5887 22.648L16.8468 23.1171L17.0752 23.6005L17.2897 24.1509L17.4523 24.6592L17.5843 25.1764L17.6918 25.7538L17.7545 26.2822L17.7861 26.8125L17.7837 27.3972L17.7454 27.9267L17.779 27.802L17.737 28.0181L17.6784 28.3227L17.5305 28.8863L17.4825 29.0331C17.4907 29.0051 17.4996 28.9778 17.5074 28.953C17.569 28.7456 17.6555 28.4113 17.7085 28.1548C17.7169 28.1117 17.7268 28.0665 17.7357 28.0173C17.7779 27.7736 17.7206 28.1158 17.7448 27.8653C17.7781 27.4934 17.788 27.1196 17.7742 26.7466C17.7556 26.3373 17.7108 25.9299 17.6403 25.5265C17.5556 25.0933 17.4436 24.6661 17.3048 24.2471C17.1448 23.8052 16.9558 23.3745 16.7392 22.9575C16.4942 22.5059 16.211 22.0761 15.8929 21.6732C15.5662 21.2781 15.2138 20.9055 14.838 20.5575C14.4937 20.2467 13.9225 19.8397 13.5136 19.596C13.031 19.3188 12.5262 19.0823 12.0045 18.889C11.4706 18.7079 10.9224 18.5718 10.3659 18.482C9.88072 18.4069 9.16113 18.3776 8.66857 18.3988C8.176 18.4201 7.45777 18.5335 6.97994 18.649C6.50212 18.7645 5.81976 19.0193 5.37916 19.2253C4.93857 19.4314 4.31756 19.8094 3.93397 20.0939C3.55038 20.3783 3.01287 20.8503 2.70303 21.1968C2.36214 21.5843 2.04703 21.9939 1.75981 22.4229C1.51503 22.7978 1.2099 23.3991 1.04928 23.7951C0.877841 24.2359 0.734157 24.6872 0.619069 25.146C0.512483 25.5988 0.442939 26.0594 0.411181 26.5234C0.392409 26.897 0.392408 27.3714 0.407497 27.7117C0.422585 28.0521 0.50238 28.5465 0.55972 28.8456C0.617059 29.1444 0.727385 29.533 0.803162 29.7859C0.878939 30.0386 1.0171 30.3743 1.10227 30.5777C1.18742 30.7809 1.3296 31.0633 1.41243 31.2139C1.49525 31.3644 1.59953 31.5428 1.6619 31.6435C1.72426 31.7442 1.81044 31.871 1.848 31.9226C1.86655 31.9523 1.88912 31.9792 1.91505 32.0027C1.90645 31.979 1.89522 31.9564 1.88152 31.9353C1.8557 31.8923 1.78428 31.7774 1.73667 31.6889C1.68906 31.6004 1.59752 31.4425 1.53347 31.3108C1.46943 31.1792 1.36984 30.9742 1.29373 30.8009C1.21762 30.6274 1.09656 30.3294 1.02547 30.1111C0.954381 29.8925 0.849097 29.5529 0.790753 29.2926C0.732409 29.0324 0.66199 28.653 0.62813 28.3571C0.594269 28.0612 0.555702 27.5969 0.566437 27.2694C0.577171 26.9418 0.603311 26.5045 0.646232 26.1543C0.689152 25.8042 0.802158 25.307 0.900074 24.9454C1.02067 24.5146 1.17669 24.0949 1.36649 23.6899C1.53952 23.3358 1.79568 22.8602 2.02638 22.5218C2.29044 22.1444 2.57864 21.7845 2.88913 21.4445C3.17684 21.1365 3.62212 20.7269 3.97152 20.477C4.32091 20.2272 4.79204 19.9219 5.18098 19.7266C5.60805 19.5168 6.04904 19.3368 6.50078 19.188C6.96636 19.0441 7.44351 18.9411 7.92686 18.8803C8.35873 18.8288 8.93715 18.7937 9.36534 18.8264C9.82353 18.8575 10.2791 18.9194 10.7291 19.0116C11.166 19.1146 11.5956 19.2469 12.015 19.4075C12.4289 19.5705 12.8278 19.7697 13.207 20.0027C13.5612 20.2213 13.9 20.4643 14.2209 20.7295C14.5229 20.9841 14.8062 21.2598 15.0693 21.5546C15.3013 21.8209 15.5439 22.1403 15.7322 22.4087C15.9257 22.691 16.0987 22.9867 16.2499 23.2938C16.3841 23.5631 16.5182 23.8708 16.6114 24.1207C16.7046 24.3704 16.7915 24.6592 16.8512 24.8815C16.911 25.1036 16.9642 25.3602 16.9943 25.5495C17.0244 25.7385 17.0483 25.9322 17.0652 26.0803C17.0819 26.2284 17.0875 26.3769 17.0929 26.4799C17.0983 26.583 17.0974 26.682 17.0959 26.7354C17.097 26.7623 17.0951 26.789 17.0907 26.8155C17.0847 26.7892 17.0816 26.7623 17.0816 26.7354C17.0778 26.6833 17.0741 26.5843 17.0635 26.4819C17.0527 26.3796 17.044 26.2331 17.0252 26.0842C17.0064 25.9356 16.9776 25.7476 16.9444 25.5584C16.9111 25.3692 16.8555 25.1208 16.7939 24.8983C16.7322 24.6758 16.644 24.3932 16.5474 24.1455C16.4509 23.8977 16.3177 23.5934 16.183 23.3265C16.0311 23.0237 15.8581 22.7323 15.6652 22.4541C15.4737 22.1865 15.2356 21.8762 15.0023 21.6091C14.7407 21.3188 14.459 21.0474 14.1593 20.7969C13.8408 20.5352 13.5048 20.2963 13.1534 20.0814C12.7787 19.8519 12.3844 19.6565 11.9751 19.4973C11.5597 19.339 11.134 19.2096 10.7009 19.1102C10.2901 19.0193 9.74861 18.9392 9.3184 18.9284C8.85501 18.9162 8.39131 18.9357 7.93055 18.9866C7.453 19.0467 6.98171 19.1492 6.52223 19.293C6.07544 19.4423 5.6394 19.6223 5.21721 19.8316C4.82757 20.0279 4.37323 20.3292 4.02283 20.5804C3.67243 20.8315 3.24525 21.2277 2.95821 21.5372C2.65213 21.8736 2.36926 22.2305 2.11155 22.6056C1.85592 22.9839 1.63367 23.3838 1.44729 23.8007C1.29206 24.1631 1.10897 24.6398 1.01138 25.0027C0.905376 25.3955 0.824073 25.7947 0.767962 26.1978C0.72638 26.549 0.688148 27.0191 0.697209 27.3475C0.706251 27.6757 0.730734 28.079 0.767292 28.3756C0.803831 28.6722 0.879608 29.0404 0.934938 29.2997C0.990269 29.5589 1.1026 29.8862 1.17537 30.104C1.24813 30.3218 1.37185 30.6046 1.44964 30.7792C1.52744 30.9541 1.62904 31.148 1.69743 31.2793C1.76584 31.4106 1.85805 31.56 1.90902 31.6469C1.95998 31.7337 2.03341 31.8398 2.06294 31.8824C2.07674 31.9045 2.09233 31.9254 2.10954 31.9448C2.10954 31.9401 2.0968 31.923 2.0787 31.891C2.06058 31.8589 2.02739 31.8055 1.98815 31.7392C1.94893 31.6728 1.87918 31.5462 1.82552 31.4468C1.77189 31.3476 1.69308 31.1891 1.63105 31.0581C1.56902 30.9272 1.48787 30.7381 1.42013 30.5764C1.35241 30.4144 1.26052 30.1527 1.20251 29.9583C1.14452 29.7637 1.05935 29.478 1.01576 29.2556C0.972167 29.0331 0.906436 28.72 0.881618 28.4729C0.856818 28.2258 0.823609 27.8911 0.822604 27.6232C0.821599 27.3552 0.829655 27.0055 0.856148 26.7223C0.882641 26.4391 0.936278 26.0796 0.990269 25.7867C1.05702 25.4549 1.14482 25.1277 1.25315 24.8071C1.35576 24.5144 1.49793 24.1644 1.62971 23.8739C1.93723 23.2344 2.32523 22.6372 2.78418 22.097C3.00247 21.8495 3.27005 21.5758 3.51248 21.3502C3.77492 21.112 4.05369 20.8927 4.34673 20.6938C4.61868 20.5093 4.95298 20.2976 5.24538 20.1552C5.53777 20.0128 5.86906 19.8667 6.16915 19.7593C6.48004 19.6444 6.79873 19.5522 7.12279 19.4832C7.42657 19.4236 7.75719 19.3677 8.05326 19.3388C8.34936 19.3098 8.66991 19.3065 8.95191 19.3065C9.23888 19.3096 9.52534 19.3321 9.8093 19.3738C10.0722 19.4129 10.3458 19.46 10.5852 19.5189C10.8246 19.5778 11.0697 19.6468 11.2823 19.7209C11.495 19.795 11.7085 19.8731 11.8909 19.9566C12.0734 20.04 12.2473 20.1249 12.401 20.207C12.5545 20.2892 12.6946 20.3733 12.819 20.4474C12.9435 20.5214 13.0538 20.5965 13.1459 20.6639C13.2382 20.7312 13.3136 20.7878 13.3737 20.8322C13.4337 20.8767 13.483 20.9178 13.5128 20.9443C13.5288 20.9572 13.5437 20.9714 13.5575 20.9867C13.5392 20.9777 13.5221 20.9663 13.5069 20.9531C13.4732 20.9312 13.427 20.8957 13.3645 20.852C13.3022 20.8083 13.2244 20.7543 13.1325 20.6901C13.0406 20.6258 12.9314 20.5616 12.8099 20.4837C12.6886 20.406 12.547 20.3309 12.3936 20.2515C12.2399 20.172 12.0693 20.0919 11.8886 20.0094C11.7078 19.9269 11.5004 19.8512 11.2903 19.7778C11.0805 19.7044 10.8421 19.6364 10.6047 19.5795C10.3673 19.5226 10.1017 19.4745 9.84015 19.4391C9.5786 19.4038 9.2909 19.3829 9.00991 19.3694C8.71215 19.3587 8.41399 19.3691 8.11765 19.4004C7.82459 19.43 7.50236 19.4768 7.20158 19.5374C6.88266 19.6021 6.56887 19.6901 6.26271 19.8007C5.96562 19.9087 5.64171 20.0448 5.35166 20.1848C5.04418 20.3355 4.74789 20.5081 4.4651 20.7015C4.18489 20.8944 3.91451 21.1014 3.65499 21.3216C3.39155 21.5512 3.14418 21.7987 2.91462 22.0622C2.68398 22.3241 2.47114 22.6011 2.27752 22.8914C2.10249 23.1628 1.91505 23.4837 1.77053 23.7645C1.61752 24.0676 1.485 24.3809 1.37386 24.702C1.27326 24.9923 1.17503 25.3386 1.10729 25.6262C1.0341 25.938 0.981227 26.2544 0.949023 26.5731C0.924874 26.8538 0.902418 27.1936 0.904762 27.4588C0.907106 27.7241 0.923534 28.0491 0.946678 28.2942C0.969823 28.5392 1.01911 28.8439 1.0637 29.0634C1.1083 29.2829 1.17436 29.5657 1.23405 29.7562C1.29373 29.9467 1.36348 30.1602 1.42283 30.3235C1.48218 30.4867 1.56231 30.6692 1.6173 30.8009C1.6723 30.9324 1.75142 31.083 1.80273 31.1836C1.85403 31.2843 1.9211 31.4014 1.95864 31.4681C1.9962 31.5348 2.04919 31.623 2.07031 31.6549C2.09142 31.6869 2.10383 31.7031 2.10854 31.7031C2.11323 31.7031 2.11222 31.7031 2.11524 31.7031C2.11825 31.7031 2.11925 31.7031 2.12229 31.7031C2.12495 31.7027 2.12766 31.7027 2.13032 31.7031C2.13334 31.7031 2.13637 31.7031 2.13805 31.7061C2.14099 31.7067 2.14376 31.708 2.14608 31.7098L2.15447 31.7136C2.15682 31.7158 2.1605 31.7182 2.16285 31.7207C2.16595 31.7218 2.1688 31.7235 2.17124 31.7257C2.17325 31.7279 2.17726 31.7309 2.17929 31.7334C2.18288 31.7352 2.18627 31.7375 2.18934 31.7401C2.19174 31.7434 2.19444 31.7464 2.19739 31.7492C2.20069 31.7517 2.20353 31.7548 2.20577 31.7582L2.2155 31.7666C2.21832 31.7702 2.22136 31.7733 2.22456 31.7765C2.22722 31.7801 2.23025 31.7832 2.2336 31.7862C2.2336 31.7887 2.23898 31.7916 2.24199 31.7954C2.24519 31.7984 2.2482 31.8017 2.25103 31.8051C2.25418 31.8083 2.25687 31.812 2.25909 31.8159C2.26311 31.8189 2.26612 31.8226 2.26982 31.8256C2.27245 31.8286 2.27524 31.8314 2.27819 31.834C2.28093 31.8378 2.28396 31.8413 2.28725 31.8445C2.28926 31.8475 2.29328 31.8499 2.29529 31.8529L2.30536 31.8613C2.30737 31.8634 2.3114 31.8664 2.31341 31.8688C2.31542 31.871 2.31944 31.874 2.32245 31.8761C2.32491 31.8789 2.32774 31.8813 2.33085 31.8832C2.33367 31.8854 2.33671 31.8875 2.33991 31.8893C2.34219 31.8916 2.34512 31.8931 2.34828 31.8936C2.35029 31.8961 2.3533 31.8966 2.35566 31.8983C2.35851 31.8989 2.36117 31.9002 2.36337 31.902C2.36638 31.9017 2.36941 31.9017 2.37243 31.902C2.37358 31.9026 2.37485 31.9028 2.37611 31.9028C2.37738 31.9028 2.37864 31.9026 2.37979 31.902C2.37979 31.9 2.36941 31.8802 2.34962 31.8432C2.32984 31.806 2.29529 31.7455 2.25239 31.6691C2.20947 31.5927 2.14173 31.4687 2.08472 31.3553C2.02772 31.2419 1.94859 31.08 1.88353 30.9324C1.81849 30.785 1.71589 30.5594 1.6552 30.3713C1.59449 30.183 1.51738 29.9534 1.45635 29.7336C1.39533 29.5137 1.33362 29.2236 1.28869 28.9711C1.24376 28.7186 1.21023 28.4016 1.18811 28.1225C1.16649 27.8087 1.16526 27.4938 1.18441 27.1798C1.20487 26.8768 1.24476 26.529 1.29674 26.2122C1.35579 25.8724 1.43756 25.5369 1.54152 25.208C1.64973 24.8669 1.78091 24.5335 1.93418 24.2102C2.09196 23.8801 2.27187 23.5612 2.47269 23.2558C2.67786 22.9461 2.905 22.6518 3.15235 22.3751C3.40188 22.0974 3.67153 21.8385 3.95912 21.6007C4.24567 21.362 4.5499 21.1453 4.86915 20.9527C5.19105 20.7635 5.50625 20.5881 5.8533 20.4504C6.20033 20.3127 6.52392 20.1902 6.88303 20.107C7.24216 20.0239 7.56506 19.9518 7.92249 19.9232C8.26757 19.8951 8.61384 19.8847 8.95996 19.8922C9.31036 19.8983 9.60275 19.9475 9.93471 20.0017C10.2399 20.0541 10.5406 20.1297 10.8343 20.2279C11.111 20.3115 11.3807 20.4164 11.6412 20.542C11.8884 20.6593 12.1297 20.7893 12.3638 20.9314C12.5759 21.062 12.7807 21.2039 12.9777 21.3567C13.1528 21.4912 13.3208 21.6351 13.4806 21.7877C13.6209 21.9171 13.7545 22.0537 13.881 22.1966C14.0114 22.3441 14.1009 22.4575 14.2042 22.5855C14.3074 22.7134 14.3625 22.8062 14.4363 22.9093C14.51 23.0123 14.5409 23.075 14.5885 23.149C14.6362 23.2232 14.6449 23.2473 14.667 23.2861C14.6791 23.3052 14.6896 23.3253 14.6985 23.3463C14.6525 23.2753 14.6237 23.2286 14.5606 23.1406C14.4976 23.0528 14.4602 22.9871 14.3796 22.8858C14.299 22.7844 14.2425 22.7026 14.1469 22.5892C14.0512 22.4758 13.9735 22.3873 13.8598 22.2647C13.7461 22.1422 13.6496 22.0475 13.5186 21.9199C13.3984 21.8041 13.2719 21.6952 13.1396 21.5938C13.0004 21.4774 12.8548 21.3689 12.7037 21.2686C12.526 21.1528 12.3684 21.056 12.1766 20.9434C11.9964 20.841 11.8105 20.7487 11.6204 20.6665C11.4094 20.5696 11.2408 20.51 11.0131 20.4308C10.7854 20.3518 10.6003 20.3063 10.3592 20.2464C10.1312 20.1936 9.90065 20.1525 9.66846 20.1232C9.43951 20.0861 9.20796 20.0677 8.97605 20.068C8.71819 20.068 8.50359 20.0626 8.24508 20.0885C7.99873 20.1074 7.7536 20.1396 7.51073 20.1851C7.26796 20.2308 7.02776 20.2893 6.79116 20.3606C6.55473 20.431 6.32216 20.5137 6.09438 20.6086C5.86813 20.7028 5.64677 20.8085 5.43114 20.9251C5.0125 21.1535 4.61758 21.4234 4.25218 21.7303C4.07658 21.8768 3.90869 22.0324 3.74921 22.1964C3.5938 22.3525 3.44662 22.5169 3.30828 22.6886C3.17114 22.8649 3.04841 23.0298 2.92871 23.2035C2.81645 23.3666 2.71334 23.5358 2.61989 23.7105C2.52779 23.8702 2.44452 24.035 2.37042 24.2038C2.29799 24.3721 2.23393 24.5243 2.17693 24.6801C2.11992 24.8361 2.07633 24.9781 2.03274 25.1178C1.98915 25.2575 1.96368 25.3871 1.93217 25.5121C1.90063 25.6369 1.88858 25.745 1.87112 25.8487C1.85369 25.9524 1.84699 26.0409 1.84028 26.1248C1.8331 26.1926 1.83031 26.2608 1.83191 26.3291C1.83098 26.3756 1.83399 26.4221 1.84095 26.4681C1.93349 25.895 2.09622 25.3356 2.32549 24.8027C2.57066 24.2324 2.88679 23.6956 3.26636 23.2049C3.64298 22.6966 4.09948 22.2531 4.61801 21.8919C5.14826 21.5036 5.72965 21.1911 6.34552 20.9632C7.02655 20.6998 7.51477 20.6266 8.24642 20.576C8.97806 20.5255 9.41698 20.5931 10.1081 20.7442C10.7991 20.8956 11.1264 21.0446 11.6968 21.3601C12.267 21.6756 12.518 21.8691 12.9474 22.269C13.377 22.6689 13.5262 22.8787 13.7988 23.2585C14.0715 23.6382 14.1377 23.8086 14.2763 24.0768C14.3454 24.2089 14.4064 24.3447 14.4594 24.4838C14.4732 24.5135 14.5245 24.6521 14.6585 25.0255C14.7926 25.3989 14.8164 25.5928 14.8996 26.1382C14.9828 26.6837 14.9597 26.8906 14.9057 27.53C14.8791 27.8588 14.852 28.0596 14.8008 28.2607L14.7887 28.2585C14.742 28.4247 14.617 28.6224 14.5305 28.8742C14.3374 29.4465 14.2073 29.4717 13.927 29.911C13.6466 30.3504 13.5768 30.4557 13.244 30.8063C12.911 31.1567 12.8483 31.224 12.4918 31.4816C12.1353 31.7392 12.0224 31.8085 11.6819 31.9865C11.3417 32.1647 11.2646 32.1886 10.9594 32.299C10.6543 32.4094 10.5497 32.4252 10.3025 32.4874C10.113 32.5429 9.92031 32.5864 9.72547 32.618C9.58599 32.6423 9.44683 32.6606 9.30969 32.6742H9.30666C9.01259 32.7379 8.78056 32.7447 8.59749 32.7136C7.8645 32.5919 7.91278 31.8721 7.91881 31.8014C7.91896 31.7997 7.91896 31.7978 7.91881 31.7959C7.92887 31.7552 7.9376 31.7145 7.94463 31.6728C8.00632 31.3172 8.15252 30.9752 8.20517 30.619C8.24508 30.3477 8.35371 30.2659 8.61291 30.2672C9.68591 30.2764 10.7589 30.2551 11.8289 30.2786C12.2042 30.2865 12.7195 29.8219 12.7623 29.4323C12.801 29.0897 12.9184 28.7591 12.9954 28.4188C13.0961 27.977 13.222 27.5434 13.1822 27.0836C13.1296 26.4657 12.4734 25.921 11.9351 25.9187C11.0825 25.915 10.2305 25.9187 9.37741 25.9187H6.92595C6.47395 25.9187 6.47094 25.9156 6.52895 25.4618C6.52975 25.4443 6.53142 25.4269 6.53397 25.4097C6.63791 24.9104 6.71572 24.8467 7.22707 24.8467C8.41373 24.8467 9.60041 24.8447 10.7871 24.8492C10.9376 24.8492 11.0929 24.84 11.1305 24.6788C11.227 24.2651 11.2981 23.8463 11.3776 23.4294C11.4138 23.2379 11.3441 23.1662 11.1394 23.1669C9.63661 23.1742 8.13341 23.1554 6.63055 23.1804C6.24024 23.1875 5.85228 23.2938 5.55754 23.6236C5.21185 24.0095 5.04452 24.4762 4.95566 24.9583C4.83429 25.6238 4.67903 26.2802 4.50601 26.9323C4.41179 27.2847 4.34539 27.641 4.26928 27.9966C4.17976 28.415 4.01176 28.8088 4.17808 29.2651C4.35747 29.7569 4.69579 30.0487 5.14177 30.2441C5.25006 30.2915 5.38418 30.3091 5.42208 30.0926C5.4717 29.8049 5.53877 29.5186 5.60214 29.2341C5.70005 28.7964 5.81674 28.3605 5.92236 27.9232C6.02028 27.5162 6.03838 27.5192 6.46389 27.5192C7.73808 27.5192 9.01226 27.5192 10.2865 27.5192C10.6201 27.5192 10.954 27.513 11.2884 27.5192C11.5046 27.5235 11.6304 27.6807 11.5506 27.8638C11.4992 27.9804 11.4834 28.0954 11.4611 28.2163C11.3939 28.593 11.2914 28.6711 10.9004 28.6719C10.3192 28.6719 9.73911 28.6719 9.16013 28.6719C8.50091 28.6719 7.84169 28.6694 7.1818 28.6719C7.08623 28.6719 6.96854 28.6324 6.93233 28.792C6.83174 29.2296 6.74489 29.674 6.60405 30.0993C6.52392 30.3406 6.50984 30.59 6.43641 30.8321C6.34519 31.1351 6.25165 31.4496 6.20939 31.7633C6.20569 31.7978 6.20569 31.8326 6.20939 31.8671C6.20925 31.868 6.20925 31.869 6.20939 31.8701C6.20952 31.8716 6.20952 31.8729 6.20939 31.8744C6.21542 31.9011 6.2379 32.0048 6.28551 32.1596C6.5152 32.909 7.2512 34.3141 9.44984 34.7517C9.44984 34.7517 9.45354 34.7517 9.45589 34.7517C9.63896 34.8023 13.8233 35.8908 16.8693 31.4446C17.0481 31.1836 17.2228 30.9033 17.3934 30.6029C17.5323 30.3188 17.654 30.0265 17.7575 29.7276C17.8778 29.3789 17.951 28.8372 18.0211 28.3439C18.0228 28.3366 18.0235 28.3287 18.0248 28.3214C18.1206 27.8023 18.0989 27.6791 18.0942 27.2367ZM10.4112 34.8726C10.6949 34.8886 10.9794 34.8849 11.2626 34.8612C10.7123 34.9241 10.5792 34.9127 10.4112 34.8726ZM17.1 30.0399C17.0499 30.1456 17.0131 30.2258 16.987 30.2803C16.9703 30.3141 16.9483 30.3591 16.934 30.3855L17.1091 30.0151L17.111 30.0175C17.105 30.0248 17.102 30.033 17.1 30.0399ZM17.1722 29.8825L17.143 29.943C17.1601 29.9054 17.1764 29.8643 17.1956 29.8229L17.1722 29.8825ZM17.3671 29.3893L17.3478 29.4371C17.3642 29.3932 17.3813 29.3449 17.398 29.2957L17.3671 29.3893Z" fill="#333C4C"/>
<path d="M26.0996 30.4797V19.8672H35.8037V21.6507H27.876V24.2891H34.2622V26.0578H27.876V30.4797H26.0996ZM38.5734 30.4797C38.2112 30.4797 37.8834 30.3913 37.5898 30.2144C37.2962 30.0278 37.0563 29.787 36.8704 29.4922C36.6943 29.1974 36.6062 28.8681 36.6062 28.5046V23.9058C36.6062 23.5423 36.6943 23.2131 36.8704 22.9183C37.0563 22.6235 37.2962 22.3877 37.5898 22.2108C37.8834 22.0241 38.2112 21.9307 38.5734 21.9307H43.286C43.6578 21.9307 43.9907 22.0241 44.2843 22.2108C44.5779 22.3877 44.8128 22.6235 44.989 22.9183C45.1652 23.2131 45.2533 23.5423 45.2533 23.9058V27.0896H38.3532V28.4457C38.3532 28.5243 38.3776 28.5931 38.4266 28.652C38.4854 28.7012 38.5538 28.7257 38.6322 28.7257H45.2533V30.4797H38.5734ZM38.3532 25.483H43.5062V23.9648C43.5062 23.8861 43.4769 23.8224 43.4181 23.7732C43.3691 23.7142 43.3055 23.6848 43.2273 23.6848H38.6322C38.5538 23.6848 38.4854 23.7142 38.4266 23.7732C38.3776 23.8224 38.3532 23.8861 38.3532 23.9648V25.483ZM49.3529 30.4797L46.0057 21.9307H47.8701L50.0576 27.2812L52.3772 21.9307H54.271L56.7374 27.3107L58.7634 21.9307H60.6425L57.4274 30.4797H56.0474L53.3314 24.4512L50.7476 30.4797H49.3529ZM63.8211 30.4797C63.4591 30.4797 63.1264 30.3913 62.8228 30.2144C62.5292 30.0376 62.2943 29.7967 62.1181 29.4922C61.942 29.1876 61.8539 28.8534 61.8539 28.4899V27.7824H63.6156V28.4309C63.6156 28.5096 63.6402 28.5733 63.689 28.6225C63.738 28.6717 63.8017 28.6962 63.8799 28.6962H70.3688C70.4472 28.6962 70.5109 28.6717 70.5597 28.6225C70.6184 28.5733 70.6478 28.5096 70.6478 28.4309V26.3232C70.6478 26.2544 70.6184 26.1955 70.5597 26.1463C70.5109 26.0873 70.4472 26.0578 70.3688 26.0578H63.8211C63.4591 26.0578 63.1264 25.9694 62.8228 25.7925C62.5292 25.6156 62.2943 25.3798 62.1181 25.085C61.942 24.7805 61.8539 24.4462 61.8539 24.0827V21.857C61.8539 21.4935 61.942 21.1593 62.1181 20.8547C62.2943 20.5502 62.5292 20.3094 62.8228 20.1325C63.1264 19.9556 63.4591 19.8672 63.8211 19.8672H70.4422C70.8045 19.8672 71.1322 19.9556 71.4258 20.1325C71.7294 20.3094 71.969 20.5502 72.1452 20.8547C72.3313 21.1593 72.4242 21.4935 72.4242 21.857V22.5645H70.6478V21.916C70.6478 21.8373 70.6184 21.7736 70.5597 21.7244C70.5109 21.6752 70.4472 21.6507 70.3688 21.6507H63.8799C63.8017 21.6507 63.738 21.6752 63.689 21.7244C63.6402 21.7736 63.6156 21.8373 63.6156 21.916V24.0238C63.6156 24.0925 63.6402 24.1564 63.689 24.2154C63.738 24.2646 63.8017 24.2891 63.8799 24.2891H70.4422C70.8045 24.2891 71.1322 24.3775 71.4258 24.5544C71.7294 24.7313 71.969 24.9721 72.1452 25.2766C72.3313 25.5714 72.4242 25.9007 72.4242 26.2642V28.4899C72.4242 28.8534 72.3313 29.1876 72.1452 29.4922C71.969 29.7967 71.7294 30.0376 71.4258 30.2144C71.1322 30.3913 70.8045 30.4797 70.4422 30.4797H63.8211ZM73.9833 30.4797V19.1302H75.7303V21.9307H80.6778C81.0301 21.9307 81.3531 22.0241 81.6467 22.2108C81.95 22.3877 82.1899 22.6235 82.3661 22.9183C82.5422 23.2131 82.6303 23.5423 82.6303 23.9058V30.4797H80.8833V23.9648C80.8833 23.8861 80.8539 23.8224 80.7952 23.7732C80.7462 23.7142 80.6875 23.6848 80.619 23.6848H76.0092C75.9408 23.6848 75.8771 23.7142 75.8184 23.7732C75.7597 23.8224 75.7303 23.8861 75.7303 23.9648V30.4797H73.9833ZM85.713 30.4797C85.3507 30.4797 85.0229 30.3913 84.7293 30.2144C84.4357 30.0278 84.1959 29.787 84.01 29.4922C83.8338 29.1974 83.7457 28.8681 83.7457 28.5046V23.9058C83.7457 23.5423 83.8338 23.2131 84.01 22.9183C84.1959 22.6235 84.4357 22.3877 84.7293 22.2108C85.0229 22.0241 85.3507 21.9307 85.713 21.9307H90.4255C90.7973 21.9307 91.1302 22.0241 91.4238 22.2108C91.7175 22.3877 91.9523 22.6235 92.1285 22.9183C92.3047 23.2131 92.3928 23.5423 92.3928 23.9058V28.5046C92.3928 28.8681 92.3047 29.1974 92.1285 29.4922C91.9523 29.787 91.7175 30.0278 91.4238 30.2144C91.1302 30.3913 90.7973 30.4797 90.4255 30.4797H85.713ZM85.7717 28.7257H90.3668C90.445 28.7257 90.5087 28.7012 90.5576 28.652C90.6164 28.5931 90.6457 28.5243 90.6457 28.4457V23.9648C90.6457 23.8861 90.6164 23.8224 90.5576 23.7732C90.5087 23.7142 90.445 23.6848 90.3668 23.6848H85.7717C85.6933 23.6848 85.6249 23.7142 85.5661 23.7732C85.5171 23.8224 85.4927 23.8861 85.4927 23.9648V28.4457C85.4927 28.5243 85.5171 28.5931 85.5661 28.652C85.6249 28.7012 85.6933 28.7257 85.7717 28.7257ZM95.606 30.4797C95.2438 30.4797 94.9111 30.3913 94.6077 30.2144C94.3141 30.0278 94.0792 29.787 93.9031 29.4922C93.7269 29.1974 93.6388 28.8681 93.6388 28.5046V19.2628H95.3858V21.9307H98.7918V23.6848H95.3858V28.4457C95.3858 28.5243 95.4103 28.5931 95.4593 28.652C95.518 28.7012 95.5864 28.7257 95.6648 28.7257H98.7918V30.4797H95.606ZM100.02 30.4797V19.8819H108.608C108.97 19.8819 109.298 19.9753 109.592 20.162C109.895 20.3388 110.135 20.5797 110.311 20.8842C110.497 21.179 110.59 21.5083 110.59 21.8718V24.7902C110.59 25.144 110.497 25.4732 110.311 25.7778C110.135 26.0823 109.895 26.3232 109.592 26.5C109.298 26.6769 108.97 26.7653 108.608 26.7653L101.781 26.7801V30.4797H100.02ZM102.046 24.9818H108.549C108.618 24.9818 108.676 24.9573 108.725 24.9081C108.784 24.8589 108.814 24.7952 108.814 24.7165V21.916C108.814 21.8473 108.784 21.7883 108.725 21.7391C108.676 21.6802 108.618 21.6507 108.549 21.6507H102.046C101.977 21.6507 101.914 21.6802 101.855 21.7391C101.806 21.7883 101.781 21.8473 101.781 21.916V24.7165C101.781 24.7952 101.806 24.8589 101.855 24.9081C101.914 24.9573 101.977 24.9818 102.046 24.9818ZM111.574 30.4797V23.9058C111.574 23.5423 111.662 23.2131 111.838 22.9183C112.024 22.6235 112.264 22.3877 112.557 22.2108C112.861 22.0241 113.189 21.9307 113.541 21.9307H118.283V23.6848H113.6C113.521 23.6848 113.453 23.7142 113.394 23.7732C113.345 23.8224 113.321 23.8861 113.321 23.9648V30.4797H111.574ZM121.211 30.4797C120.849 30.4797 120.521 30.3913 120.227 30.2144C119.934 30.0278 119.694 29.787 119.508 29.4922C119.332 29.1974 119.244 28.8681 119.244 28.5046V23.9058C119.244 23.5423 119.332 23.2131 119.508 22.9183C119.694 22.6235 119.934 22.3877 120.227 22.2108C120.521 22.0241 120.849 21.9307 121.211 21.9307H125.923C126.295 21.9307 126.628 22.0241 126.922 22.2108C127.215 22.3877 127.45 22.6235 127.626 22.9183C127.803 23.2131 127.891 23.5423 127.891 23.9058V27.0896H120.991V28.4457C120.991 28.5243 121.015 28.5931 121.064 28.652C121.123 28.7012 121.191 28.7257 121.27 28.7257H127.891V30.4797H121.211ZM120.991 25.483H126.144V23.9648C126.144 23.8861 126.114 23.8224 126.056 23.7732C126.007 23.7142 125.943 23.6848 125.865 23.6848H121.27C121.191 23.6848 121.123 23.7142 121.064 23.7732C121.015 23.8224 120.991 23.8861 120.991 23.9648V25.483ZM129.453 33.8699V21.9307H136.147C136.499 21.9307 136.822 22.0241 137.116 22.2108C137.419 22.3877 137.659 22.6235 137.835 22.9183C138.012 23.2131 138.1 23.5423 138.1 23.9058V28.5046C138.1 28.8681 138.012 29.1974 137.835 29.4922C137.659 29.787 137.419 30.0278 137.116 30.2144C136.822 30.3913 136.499 30.4797 136.147 30.4797H131.2V33.8699H129.453ZM131.479 28.7257H136.088C136.157 28.7257 136.215 28.7012 136.264 28.652C136.323 28.5931 136.353 28.5243 136.353 28.4457V23.9648C136.353 23.8861 136.323 23.8224 136.264 23.7732C136.215 23.7142 136.157 23.6848 136.088 23.6848H131.479C131.41 23.6848 131.346 23.7142 131.288 23.7732C131.229 23.8224 131.2 23.8861 131.2 23.9648V28.4457C131.2 28.5243 131.229 28.5931 131.288 28.652C131.346 28.7012 131.41 28.7257 131.479 28.7257Z" fill="#333C4C"/>
</svg>
