<svg width="19" height="17" viewBox="0 0 19 17" fill="none" xmlns="http://www.w3.org/2000/svg">
<path d="M18.0942 9.23674C18.0868 8.7819 18.0538 8.32781 17.9956 7.87653C17.9487 7.57168 17.8923 7.30027 17.884 7.25544C17.7965 6.86598 17.6894 6.48138 17.563 6.10276C17.3904 5.60122 16.931 4.65718 16.5316 4.0516C16.1324 3.44584 15.2819 2.53654 14.6367 2.00839C13.9917 1.48018 12.7781 0.853998 11.9939 0.574241C11.2096 0.294484 9.87838 0.0999025 9.03239 0.0945042C8.1864 0.0891246 6.8589 0.346673 6.08668 0.615652C5.31445 0.884631 4.23475 1.50779 3.63352 1.95384C3.03232 2.39999 2.24132 3.24224 1.86677 3.75554C1.49222 4.26903 1.01105 5.12416 0.790083 5.66791C0.569115 6.21147 0.34279 7.02793 0.240855 7.54665C0.13892 8.06556 0.0835899 8.92704 0.103701 9.38785C0.128036 9.88603 0.182678 10.3821 0.26733 10.8734C0.363906 11.3734 0.915162 12.5753 1.01777 12.796L0.801487 12.2646L0.633822 11.7478L0.494343 11.2216L0.388055 10.6896L0.305897 10.0861L0.272371 9.54737L0.266325 9.00512L0.299869 8.40141L0.36692 7.86513L0.462492 7.33334L0.608018 6.74719L0.770306 6.23314L0.96478 5.72805L1.18776 5.23716L1.47445 4.70668L1.76149 4.24923L2.07432 3.80821L2.45693 3.33993L2.82577 2.94598L3.21875 2.57371L3.63185 2.22419L4.11907 1.86734L4.57375 1.5758L5.04552 1.31253L5.53172 1.07889L6.08768 0.85467L6.59937 0.686353L7.11909 0.551695L7.70353 0.437229L8.23468 0.371573L8.76816 0.337912L9.30231 0.334886L9.89313 0.371908L10.4226 0.439247L10.9463 0.537891L11.5191 0.683664L12.0261 0.851981L12.5216 1.04622L13.0581 1.29806L13.5242 1.5576L13.9738 1.84511L14.4071 2.15819L14.8628 2.53859L15.2507 2.90695L15.6155 3.29809L15.9934 3.75722L16.3046 4.19487L16.5887 4.64803L16.8468 5.11706L17.0752 5.60047L17.2897 6.15095L17.4523 6.65921L17.5843 7.17643L17.6918 7.7538L17.7545 8.28224L17.7861 8.81254L17.7837 9.39719L17.7454 9.92675L17.779 9.80197L17.737 10.0181L17.6784 10.3227L17.5305 10.8863L17.4825 11.0331C17.4907 11.0051 17.4996 10.9778 17.5074 10.953C17.569 10.7456 17.6555 10.4113 17.7085 10.1548C17.7169 10.1117 17.7268 10.0665 17.7357 10.0173C17.7779 9.77358 17.7206 10.1158 17.7448 9.86529C17.7781 9.49339 17.788 9.11962 17.7742 8.7466C17.7556 8.33734 17.7108 7.92995 17.6403 7.52648C17.5556 7.09331 17.4436 6.66612 17.3048 6.24715C17.1448 5.8052 16.9558 5.37446 16.7392 4.95754C16.4942 4.50588 16.211 4.07607 15.8929 3.67316C15.5662 3.2781 15.2138 2.90545 14.838 2.55746C14.4937 2.24675 13.9225 1.83973 13.5136 1.59599C13.031 1.31883 12.5262 1.08235 12.0045 0.889021C11.4706 0.707927 10.9224 0.571793 10.3659 0.482003C9.88072 0.406931 9.16113 0.377643 8.66857 0.398844C8.176 0.420063 7.45777 0.533502 6.97994 0.648977C6.50212 0.764451 5.81976 1.01931 5.37916 1.22534C4.93857 1.43137 4.31756 1.80943 3.93397 2.0939C3.55038 2.37833 3.01287 2.85035 2.70303 3.19685C2.36214 3.58425 2.04703 3.99388 1.75981 4.42294C1.51503 4.79783 1.2099 5.39911 1.04928 5.79511C0.877841 6.23594 0.734157 6.68723 0.619069 7.14598C0.512483 7.59877 0.442939 8.05939 0.411181 8.52338C0.392409 8.89697 0.392408 9.37142 0.407497 9.71175C0.422585 10.0521 0.50238 10.5465 0.55972 10.8456C0.617059 11.1444 0.727385 11.533 0.803162 11.7859C0.878939 12.0386 1.0171 12.3743 1.10227 12.5777C1.18742 12.7809 1.3296 13.0633 1.41243 13.2139C1.49525 13.3644 1.59953 13.5428 1.6619 13.6435C1.72426 13.7442 1.81044 13.871 1.848 13.9226C1.86655 13.9523 1.88912 13.9792 1.91505 14.0027C1.90645 13.979 1.89522 13.9564 1.88152 13.9353C1.8557 13.8923 1.78428 13.7774 1.73667 13.6889C1.68906 13.6004 1.59752 13.4425 1.53347 13.3108C1.46943 13.1792 1.36984 12.9742 1.29373 12.8009C1.21762 12.6274 1.09656 12.3294 1.02547 12.1111C0.954381 11.8925 0.849097 11.5529 0.790753 11.2926C0.732409 11.0324 0.66199 10.653 0.62813 10.3571C0.594269 10.0612 0.555702 9.59687 0.566437 9.26943C0.577171 8.9418 0.603311 8.50452 0.646232 8.15428C0.689152 7.80424 0.802158 7.307 0.900074 6.94537C1.02067 6.51463 1.17669 6.09491 1.36649 5.68995C1.53952 5.33579 1.79568 4.86022 2.02638 4.52176C2.29044 4.14444 2.57864 3.78449 2.88913 3.44453C3.17684 3.13651 3.62212 2.72688 3.97152 2.47695C4.32091 2.22721 4.79204 1.92186 5.18098 1.72661C5.60805 1.51679 6.04904 1.33682 6.50078 1.18796C6.96636 1.0441 7.44351 0.941136 7.92686 0.880261C8.35873 0.828763 8.93715 0.793739 9.36534 0.826391C9.82353 0.857491 10.2791 0.919356 10.7291 1.01156C11.166 1.11465 11.5956 1.24691 12.015 1.40746C12.4289 1.57051 12.8278 1.76967 13.207 2.00267C13.5612 2.22133 13.9 2.46425 14.2209 2.72949C14.5229 2.98409 14.8062 3.25979 15.0693 3.55455C15.3013 3.82091 15.5439 4.14033 15.7322 4.40875C15.9257 4.69099 16.0987 4.98668 16.2499 5.29376C16.3841 5.56312 16.5182 5.87076 16.6114 6.12069C16.7046 6.37043 16.7915 6.65921 16.8512 6.88149C16.911 7.10358 16.9642 7.36024 16.9943 7.54945C17.0244 7.73849 17.0483 7.93219 17.0652 8.08032C17.0819 8.22844 17.0875 8.37694 17.0929 8.47986C17.0983 8.58297 17.0974 8.68197 17.0959 8.73539C17.097 8.76229 17.0951 8.789 17.0907 8.81552C17.0847 8.78919 17.0816 8.76229 17.0816 8.73539C17.0778 8.68328 17.0741 8.58428 17.0635 8.48192C17.0527 8.37955 17.044 8.23311 17.0252 8.08424C17.0064 7.93555 16.9776 7.74764 16.9444 7.55842C16.9111 7.3692 16.8555 7.12077 16.7939 6.8983C16.7322 6.67583 16.644 6.39322 16.5474 6.14553C16.4509 5.89766 16.3177 5.59338 16.183 5.32645C16.0311 5.02366 15.8581 4.73227 15.6652 4.45414C15.4737 4.18646 15.2356 3.87621 15.0023 3.60909C14.7407 3.31882 14.459 3.04741 14.1593 2.79693C13.8408 2.53523 13.5048 2.29625 13.1534 2.08144C12.7787 1.85193 12.3844 1.65645 11.9751 1.49734C11.5597 1.33902 11.134 1.20965 10.7009 1.1102C10.2901 1.01931 9.74861 0.939174 9.3184 0.928397C8.85501 0.916237 8.39131 0.9357 7.93055 0.986638C7.453 1.04669 6.98171 1.14922 6.52223 1.293C6.07544 1.4423 5.6394 1.62227 5.21721 1.83164C4.82757 2.02792 4.37323 2.32922 4.02283 2.58043C3.67243 2.83148 3.24525 3.22767 2.95821 3.53718C2.65213 3.87359 2.36926 4.23055 2.11155 4.60562C1.85592 4.98388 1.63367 5.3838 1.44729 5.80072C1.29206 6.16309 1.10897 6.63978 1.01138 7.00272C0.905376 7.39554 0.824073 7.79471 0.767962 8.19781C0.72638 8.54897 0.688148 9.01913 0.697209 9.34751C0.706251 9.6757 0.730734 10.079 0.767292 10.3756C0.803831 10.6722 0.879608 11.0404 0.934938 11.2997C0.990269 11.5589 1.1026 11.8862 1.17537 12.104C1.24813 12.3218 1.37185 12.6046 1.44964 12.7792C1.52744 12.9541 1.62904 13.148 1.69743 13.2793C1.76584 13.4106 1.85805 13.56 1.90902 13.6469C1.95998 13.7337 2.03341 13.8398 2.06294 13.8824C2.07674 13.9045 2.09233 13.9254 2.10954 13.9448C2.10954 13.9401 2.0968 13.923 2.0787 13.891C2.06058 13.8589 2.02739 13.8055 1.98815 13.7392C1.94893 13.6728 1.87918 13.5462 1.82552 13.4468C1.77189 13.3476 1.69308 13.1891 1.63105 13.0581C1.56902 12.9272 1.48787 12.7381 1.42013 12.5764C1.35241 12.4144 1.26052 12.1527 1.20251 11.9583C1.14452 11.7637 1.05935 11.478 1.01576 11.2556C0.972167 11.0331 0.906436 10.72 0.881618 10.4729C0.856818 10.2258 0.823609 9.89107 0.822604 9.62321C0.821599 9.35516 0.829655 9.00549 0.856148 8.72232C0.882641 8.43914 0.936278 8.07957 0.990269 7.78668C1.05702 7.45494 1.14482 7.12768 1.25315 6.80715C1.35576 6.51444 1.49793 6.1644 1.62971 5.87394C1.93723 5.23436 2.32523 4.63719 2.78418 4.09699C3.00247 3.84949 3.27005 3.57584 3.51248 3.3502C3.77492 3.11204 4.05369 2.89275 4.34673 2.69382C4.61868 2.50927 4.95298 2.29758 5.24538 2.15517C5.53777 2.01278 5.86906 1.86667 6.16915 1.75926C6.48004 1.64442 6.79873 1.55217 7.12279 1.4832C7.42657 1.42362 7.75719 1.36773 8.05326 1.33878C8.34936 1.30984 8.66991 1.30646 8.95191 1.30646C9.23888 1.30958 9.52534 1.33207 9.8093 1.3738C10.0722 1.41286 10.3458 1.45999 10.5852 1.5189C10.8246 1.57781 11.0697 1.64683 11.2823 1.7209C11.495 1.79496 11.7085 1.87306 11.8909 1.95655C12.0734 2.04003 12.2473 2.12487 12.401 2.20702C12.5545 2.28915 12.6946 2.37328 12.819 2.44744C12.9435 2.52141 13.0538 2.5965 13.1459 2.66393C13.2382 2.73117 13.3136 2.78777 13.3737 2.83223C13.4337 2.87668 13.483 2.91778 13.5128 2.9443C13.5288 2.95719 13.5437 2.97139 13.5575 2.98671C13.5392 2.97774 13.5221 2.96635 13.5069 2.95308C13.4732 2.93123 13.427 2.89574 13.3645 2.85203C13.3022 2.80832 13.2244 2.75434 13.1325 2.69008C13.0406 2.62583 12.9314 2.56157 12.8099 2.48368C12.6886 2.40597 12.547 2.3309 12.3936 2.25146C12.2399 2.172 12.0693 2.09188 11.8886 2.00939C11.7078 1.92693 11.5004 1.85116 11.2903 1.77777C11.0805 1.70438 10.8421 1.63639 10.6047 1.5795C10.3673 1.5226 10.1017 1.47446 9.84015 1.4391C9.5786 1.40376 9.2909 1.38288 9.00991 1.36943C8.71215 1.35874 8.41399 1.36909 8.11765 1.4004C7.82459 1.43002 7.50236 1.47682 7.20158 1.53741C6.88266 1.60211 6.56887 1.69009 6.26271 1.80067C5.96562 1.90873 5.64171 2.04475 5.35166 2.18479C5.04418 2.33548 4.74789 2.50815 4.4651 2.70148C4.18489 2.89443 3.91451 3.10139 3.65499 3.32162C3.39155 3.55119 3.14418 3.79869 2.91462 4.06225C2.68398 4.32413 2.47114 4.60114 2.27752 4.89142C2.10249 5.16282 1.91505 5.48373 1.77053 5.76448C1.61752 6.06764 1.485 6.38089 1.37386 6.70198C1.27326 6.99226 1.17503 7.33857 1.10729 7.62623C1.0341 7.93798 0.981227 8.25441 0.949023 8.57307C0.924874 8.85382 0.902418 9.19359 0.904762 9.45883C0.907106 9.72408 0.923534 10.0491 0.946678 10.2942C0.969823 10.5392 1.01911 10.8439 1.0637 11.0634C1.1083 11.2829 1.17436 11.5657 1.23405 11.7562C1.29373 11.9467 1.36348 12.1602 1.42283 12.3235C1.48218 12.4867 1.56231 12.6692 1.6173 12.8009C1.6723 12.9324 1.75142 13.083 1.80273 13.1836C1.85403 13.2843 1.9211 13.4014 1.95864 13.4681C1.9962 13.5348 2.04919 13.623 2.07031 13.6549C2.09142 13.6869 2.10383 13.7031 2.10854 13.7031C2.11323 13.7031 2.11222 13.7031 2.11524 13.7031C2.11825 13.7031 2.11925 13.7031 2.12229 13.7031C2.12495 13.7027 2.12766 13.7027 2.13032 13.7031C2.13334 13.7031 2.13637 13.7031 2.13805 13.7061C2.14099 13.7067 2.14376 13.708 2.14608 13.7098L2.15447 13.7136C2.15682 13.7158 2.1605 13.7182 2.16285 13.7207C2.16595 13.7218 2.1688 13.7235 2.17124 13.7257C2.17325 13.7279 2.17726 13.7309 2.17929 13.7334C2.18288 13.7352 2.18627 13.7375 2.18934 13.7401C2.19174 13.7434 2.19444 13.7464 2.19739 13.7492C2.20069 13.7517 2.20353 13.7548 2.20577 13.7582L2.2155 13.7666C2.21832 13.7702 2.22136 13.7733 2.22456 13.7765C2.22722 13.7801 2.23025 13.7832 2.2336 13.7862C2.2336 13.7887 2.23898 13.7916 2.24199 13.7954C2.24519 13.7984 2.2482 13.8017 2.25103 13.8051C2.25418 13.8083 2.25687 13.812 2.25909 13.8159C2.26311 13.8189 2.26612 13.8226 2.26982 13.8256C2.27245 13.8286 2.27524 13.8314 2.27819 13.834C2.28093 13.8378 2.28396 13.8413 2.28725 13.8445C2.28926 13.8475 2.29328 13.8499 2.29529 13.8529L2.30536 13.8613C2.30737 13.8634 2.3114 13.8664 2.31341 13.8688C2.31542 13.871 2.31944 13.874 2.32245 13.8761C2.32491 13.8789 2.32774 13.8813 2.33085 13.8832C2.33367 13.8854 2.33671 13.8875 2.33991 13.8893C2.34219 13.8916 2.34512 13.8931 2.34828 13.8936C2.35029 13.8961 2.3533 13.8966 2.35566 13.8983C2.35851 13.8989 2.36117 13.9002 2.36337 13.902C2.36638 13.9017 2.36941 13.9017 2.37243 13.902C2.37358 13.9026 2.37485 13.9028 2.37611 13.9028C2.37738 13.9028 2.37864 13.9026 2.37979 13.902C2.37979 13.9 2.36941 13.8802 2.34962 13.8432C2.32984 13.806 2.29529 13.7455 2.25239 13.6691C2.20947 13.5927 2.14173 13.4687 2.08472 13.3553C2.02772 13.2419 1.94859 13.08 1.88353 12.9324C1.81849 12.785 1.71589 12.5594 1.6552 12.3713C1.59449 12.183 1.51738 11.9534 1.45635 11.7336C1.39533 11.5137 1.33362 11.2236 1.28869 10.9711C1.24376 10.7186 1.21023 10.4016 1.18811 10.1225C1.16649 9.80869 1.16526 9.49376 1.18441 9.17977C1.20487 8.87679 1.24476 8.52899 1.29674 8.21219C1.35579 7.87242 1.43756 7.53694 1.54152 7.208C1.64973 6.86692 1.78091 6.5335 1.93418 6.21016C2.09196 5.8801 2.27187 5.56125 2.47269 5.25585C2.67786 4.94615 2.905 4.65176 3.15235 4.37512C3.40188 4.09737 3.67153 3.83847 3.95912 3.60069C4.24567 3.36197 4.5499 3.14529 4.86915 2.95271C5.19105 2.76349 5.50625 2.58809 5.8533 2.45043C6.20033 2.31273 6.52392 2.19019 6.88303 2.10703C7.24216 2.02387 7.56506 1.95183 7.92249 1.92321C8.26757 1.89506 8.61384 1.88473 8.95996 1.89224C9.31036 1.89831 9.60275 1.94746 9.93471 2.00166C10.2399 2.05406 10.5406 2.12969 10.8343 2.22788C11.111 2.31146 11.3807 2.41643 11.6412 2.54195C11.8884 2.65926 12.1297 2.78927 12.3638 2.93142C12.5759 3.06198 12.7807 3.20394 12.9777 3.35674C13.1528 3.49123 13.3208 3.63506 13.4806 3.78767C13.6209 3.91711 13.7545 4.05366 13.881 4.19655C14.0114 4.34412 14.1009 4.4575 14.2042 4.58545C14.3074 4.7134 14.3625 4.80624 14.4363 4.90935C14.51 5.01227 14.5409 5.07503 14.5885 5.149C14.6362 5.22316 14.6449 5.24725 14.667 5.2861C14.6791 5.30516 14.6896 5.32533 14.6985 5.34625C14.6525 5.27527 14.6237 5.22857 14.5606 5.14059C14.4976 5.0528 14.4602 4.98705 14.3796 4.88581C14.299 4.78438 14.2425 4.70257 14.1469 4.58919C14.0512 4.47581 13.9735 4.38726 13.8598 4.26473C13.7461 4.14219 13.6496 4.04749 13.5186 3.91991C13.3984 3.8041 13.2719 3.6952 13.1396 3.59378C13.0004 3.47741 12.8548 3.36888 12.7037 3.26857C12.526 3.15276 12.3684 3.056 12.1766 2.94337C11.9964 2.84101 11.8105 2.74873 11.6204 2.66654C11.4094 2.5696 11.2408 2.51001 11.0131 2.43082C10.7854 2.3518 10.6003 2.30634 10.3592 2.2464C10.1312 2.19365 9.90065 2.15251 9.66846 2.12319C9.43951 2.08611 9.20796 2.06765 8.97605 2.06797C8.71819 2.06797 8.50359 2.06259 8.24508 2.08852C7.99873 2.10739 7.7536 2.13965 7.51073 2.18513C7.26796 2.23078 7.02776 2.28934 6.79116 2.36058C6.55473 2.431 6.32216 2.51375 6.09438 2.60864C5.86813 2.70278 5.64677 2.80851 5.43114 2.92506C5.0125 3.15351 4.61758 3.42342 4.25218 3.73032C4.07658 3.87676 3.90869 4.03236 3.74921 4.19636C3.5938 4.35252 3.44662 4.5169 3.30828 4.68856C3.17114 4.86489 3.04841 5.02983 2.92871 5.20354C2.81645 5.36661 2.71334 5.53585 2.61989 5.71049C2.52779 5.8702 2.44452 6.03495 2.37042 6.20381C2.29799 6.37211 2.23393 6.52434 2.17693 6.68013C2.11992 6.8361 2.07633 6.97806 2.03274 7.11778C1.98915 7.2575 1.96368 7.38713 1.93217 7.5121C1.90063 7.63687 1.88858 7.74502 1.87112 7.84869C1.85369 7.95236 1.84699 8.0409 1.84028 8.12477C1.8331 8.19258 1.83031 8.26076 1.83191 8.32912C1.83098 8.37563 1.83399 8.42214 1.84095 8.46809C1.93349 7.89502 2.09622 7.33558 2.32549 6.80266C2.57066 6.23239 2.88679 5.69555 3.26636 5.20485C3.64298 4.69659 4.09948 4.25315 4.61801 3.8919C5.14826 3.50356 5.72965 3.19106 6.34552 2.96317C7.02655 2.69979 7.51477 2.62657 8.24642 2.57595C8.97806 2.52552 9.41698 2.59314 10.1081 2.74425C10.7991 2.89555 11.1264 3.04461 11.6968 3.3601C12.267 3.67559 12.518 3.86911 12.9474 4.26903C13.377 4.66895 13.5262 4.87871 13.7988 5.25846C14.0715 5.63821 14.1377 5.80856 14.2763 6.07679C14.3454 6.20885 14.4064 6.34465 14.4594 6.48381C14.4732 6.51351 14.5245 6.65211 14.6585 7.02551C14.7926 7.3989 14.8164 7.59279 14.8996 8.13822C14.9828 8.68365 14.9597 8.89062 14.9057 9.53C14.8791 9.85876 14.852 10.0596 14.8008 10.2607L14.7887 10.2585C14.742 10.4247 14.617 10.6224 14.5305 10.8742C14.3374 11.4465 14.2073 11.4717 13.927 11.911C13.6466 12.3504 13.5768 12.4557 13.244 12.8063C12.911 13.1567 12.8483 13.224 12.4918 13.4816C12.1353 13.7392 12.0224 13.8085 11.6819 13.9865C11.3417 14.1647 11.2646 14.1886 10.9594 14.299C10.6543 14.4094 10.5497 14.4252 10.3025 14.4874C10.113 14.5429 9.92031 14.5864 9.72547 14.618C9.58599 14.6423 9.44683 14.6606 9.30969 14.6742H9.30666C9.01259 14.7379 8.78056 14.7447 8.59749 14.7136C7.8645 14.5919 7.91278 13.8721 7.91881 13.8014C7.91896 13.7997 7.91896 13.7978 7.91881 13.7959C7.92887 13.7552 7.9376 13.7145 7.94463 13.6728C8.00632 13.3172 8.15252 12.9752 8.20517 12.619C8.24508 12.3477 8.35371 12.2659 8.61291 12.2672C9.68591 12.2764 10.7589 12.2551 11.8289 12.2786C12.2042 12.2865 12.7195 11.8219 12.7623 11.4323C12.801 11.0897 12.9184 10.7591 12.9954 10.4188C13.0961 9.97699 13.222 9.54345 13.1822 9.08357C13.1296 8.46566 12.4734 7.92098 11.9351 7.91874C11.0825 7.915 10.2305 7.91874 9.37741 7.91874H6.92595C6.47395 7.91874 6.47094 7.91557 6.52895 7.46185C6.52975 7.44429 6.53142 7.42692 6.53397 7.40973C6.63791 6.91044 6.71572 6.84675 7.22707 6.84675C8.41373 6.84675 9.60041 6.84469 10.7871 6.84917C10.9376 6.84917 11.0929 6.84002 11.1305 6.67882C11.227 6.26508 11.2981 5.84629 11.3776 5.42937C11.4138 5.23791 11.3441 5.16618 11.1394 5.16693C9.63661 5.17422 8.13341 5.15535 6.63055 5.18038C6.24024 5.18748 5.85228 5.29376 5.55754 5.62364C5.21185 6.00955 5.04452 6.47615 4.95566 6.95826C4.83429 7.6238 4.67903 8.28018 4.50601 8.93227C4.41179 9.28474 4.34539 9.64095 4.26928 9.9966C4.17976 10.415 4.01176 10.8088 4.17808 11.2651C4.35747 11.7569 4.69579 12.0487 5.14177 12.2441C5.25006 12.2915 5.38418 12.3091 5.42208 12.0926C5.4717 11.8049 5.53877 11.5186 5.60214 11.2341C5.70005 10.7964 5.81674 10.3605 5.92236 9.9232C6.02028 9.51618 6.03838 9.51917 6.46389 9.51917C7.73808 9.51917 9.01226 9.51917 10.2865 9.51917C10.6201 9.51917 10.954 9.513 11.2884 9.51917C11.5046 9.52346 11.6304 9.68074 11.5506 9.8638C11.4992 9.98035 11.4834 10.0954 11.4611 10.2163C11.3939 10.593 11.2914 10.6711 10.9004 10.6719C10.3192 10.6719 9.73911 10.6719 9.16013 10.6719C8.50091 10.6719 7.84169 10.6694 7.1818 10.6719C7.08623 10.6719 6.96854 10.6324 6.93233 10.792C6.83174 11.2296 6.74489 11.674 6.60405 12.0993C6.52392 12.3406 6.50984 12.59 6.43641 12.8321C6.34519 13.1351 6.25165 13.4496 6.20939 13.7633C6.20569 13.7978 6.20569 13.8326 6.20939 13.8671C6.20925 13.868 6.20925 13.869 6.20939 13.8701C6.20952 13.8716 6.20952 13.8729 6.20939 13.8744C6.21542 13.9011 6.2379 14.0048 6.28551 14.1596C6.5152 14.909 7.2512 16.3141 9.44984 16.7517C9.44984 16.7517 9.45354 16.7517 9.45589 16.7517C9.63896 16.8023 13.8233 17.8908 16.8693 13.4446C17.0481 13.1836 17.2228 12.9033 17.3934 12.6029C17.5323 12.3188 17.654 12.0265 17.7575 11.7276C17.8778 11.3789 17.951 10.8372 18.0211 10.3439C18.0228 10.3366 18.0235 10.3287 18.0248 10.3214C18.1206 9.80234 18.0989 9.67906 18.0942 9.23674ZM10.4112 16.8726C10.6949 16.8886 10.9794 16.8849 11.2626 16.8612C10.7123 16.9241 10.5792 16.9127 10.4112 16.8726ZM17.1 12.0399C17.0499 12.1456 17.0131 12.2258 16.987 12.2803C16.9703 12.3141 16.9483 12.3591 16.934 12.3855L17.1091 12.0151L17.111 12.0175C17.105 12.0248 17.102 12.033 17.1 12.0399ZM17.1722 11.8825L17.143 11.943C17.1601 11.9054 17.1764 11.8643 17.1956 11.8229L17.1722 11.8825ZM17.3671 11.3893L17.3478 11.4371C17.3642 11.3932 17.3813 11.3449 17.398 11.2957L17.3671 11.3893Z" fill="#333C4C"/>
</svg>
