<svg width="19" height="17" viewBox="0 0 19 17" fill="none" xmlns="http://www.w3.org/2000/svg">
<path d="M18.0942 9.23677C18.0868 8.78193 18.0538 8.32784 17.9956 7.87656C17.9487 7.57171 17.8923 7.3003 17.884 7.25547C17.7965 6.86601 17.6894 6.48141 17.563 6.10279C17.3904 5.60125 16.931 4.65721 16.5316 4.05163C16.1324 3.44587 15.2819 2.53657 14.6367 2.00842C13.9917 1.48021 12.7781 0.854029 11.9939 0.574272C11.2096 0.294515 9.87838 0.099933 9.03239 0.0945347C8.1864 0.0891551 6.8589 0.346703 6.08668 0.615682C5.31445 0.884662 4.23475 1.50782 3.63352 1.95387C3.03232 2.40002 2.24132 3.24227 1.86677 3.75557C1.49222 4.26906 1.01105 5.12419 0.790083 5.66794C0.569115 6.2115 0.34279 7.02796 0.240855 7.54668C0.13892 8.06559 0.0835899 8.92707 0.103701 9.38789C0.128036 9.88606 0.182678 10.3822 0.26733 10.8734C0.363906 11.3735 0.915162 12.5753 1.01777 12.7961L0.801487 12.2647L0.633822 11.7478L0.494343 11.2216L0.388055 10.6896L0.305897 10.0861L0.272371 9.5474L0.266325 9.00515L0.299869 8.40144L0.36692 7.86516L0.462492 7.33337L0.608018 6.74722L0.770306 6.23317L0.96478 5.72808L1.18776 5.2372L1.47445 4.70671L1.76149 4.24926L2.07432 3.80824L2.45693 3.33996L2.82577 2.94602L3.21875 2.57374L3.63185 2.22422L4.11907 1.86737L4.57375 1.57583L5.04552 1.31256L5.53172 1.07893L6.08768 0.854701L6.59937 0.686383L7.11909 0.551725L7.70353 0.437259L8.23468 0.371603L8.76816 0.337942L9.30231 0.334917L9.89313 0.371938L10.4226 0.439277L10.9463 0.537922L11.5191 0.683694L12.0261 0.852012L12.5216 1.04625L13.0581 1.29809L13.5242 1.55763L13.9738 1.84514L14.4071 2.15822L14.8628 2.53862L15.2507 2.90698L15.6155 3.29812L15.9934 3.75725L16.3046 4.1949L16.5887 4.64806L16.8468 5.11709L17.0752 5.6005L17.2897 6.15098L17.4523 6.65924L17.5843 7.17646L17.6918 7.75384L17.7545 8.28227L17.7861 8.81257L17.7837 9.39722L17.7454 9.92678L17.779 9.802L17.737 10.0181L17.6784 10.3228L17.5305 10.8863L17.4825 11.0331C17.4907 11.0051 17.4996 10.9779 17.5074 10.953C17.569 10.7457 17.6555 10.4113 17.7085 10.1548C17.7169 10.1117 17.7268 10.0665 17.7357 10.0174C17.7779 9.77361 17.7206 10.1158 17.7448 9.86532C17.7781 9.49342 17.788 9.11965 17.7742 8.74663C17.7556 8.33737 17.7108 7.92998 17.6403 7.52651C17.5556 7.09334 17.4436 6.66615 17.3048 6.24718C17.1448 5.80523 16.9558 5.37449 16.7392 4.95757C16.4942 4.50591 16.211 4.0761 15.8929 3.67319C15.5662 3.27813 15.2138 2.90548 14.838 2.55749C14.4937 2.24678 13.9225 1.83976 13.5136 1.59602C13.031 1.31886 12.5262 1.08238 12.0045 0.889051C11.4706 0.707957 10.9224 0.571824 10.3659 0.482033C9.88072 0.406962 9.16113 0.377673 8.66857 0.398874C8.176 0.420094 7.45777 0.533533 6.97994 0.649007C6.50212 0.764481 5.81976 1.01934 5.37916 1.22537C4.93857 1.4314 4.31756 1.80947 3.93397 2.09393C3.55038 2.37836 3.01287 2.85038 2.70303 3.19688C2.36214 3.58428 2.04703 3.99391 1.75981 4.42297C1.51503 4.79786 1.2099 5.39914 1.04928 5.79514C0.877841 6.23597 0.734157 6.68726 0.619069 7.14602C0.512483 7.5988 0.442939 8.05942 0.411181 8.52341C0.392409 8.897 0.392408 9.37145 0.407497 9.71178C0.422585 10.0521 0.50238 10.5466 0.55972 10.8456C0.617059 11.1445 0.727385 11.533 0.803162 11.7859C0.878939 12.0386 1.0171 12.3743 1.10227 12.5777C1.18742 12.7809 1.3296 13.0634 1.41243 13.2139C1.49525 13.3645 1.59953 13.5429 1.6619 13.6435C1.72426 13.7442 1.81044 13.8711 1.848 13.9226C1.86655 13.9523 1.88912 13.9792 1.91505 14.0027C1.90645 13.979 1.89522 13.9564 1.88152 13.9353C1.8557 13.8924 1.78428 13.7775 1.73667 13.6889C1.68906 13.6004 1.59752 13.4426 1.53347 13.3109C1.46943 13.1792 1.36984 12.9743 1.29373 12.8009C1.21762 12.6274 1.09656 12.3295 1.02547 12.1111C0.954381 11.8926 0.849097 11.553 0.790753 11.2926C0.732409 11.0324 0.66199 10.653 0.62813 10.3571C0.594269 10.0613 0.555702 9.5969 0.566437 9.26946C0.577171 8.94183 0.603311 8.50455 0.646232 8.15431C0.689152 7.80427 0.802158 7.30703 0.900074 6.9454C1.02067 6.51466 1.17669 6.09494 1.36649 5.68998C1.53952 5.33582 1.79568 4.86025 2.02638 4.52179C2.29044 4.14447 2.57864 3.78452 2.88913 3.44456C3.17684 3.13654 3.62212 2.72691 3.97152 2.47698C4.32091 2.22724 4.79204 1.92189 5.18098 1.72664C5.60805 1.51682 6.04904 1.33685 6.50078 1.18799C6.96636 1.04413 7.44351 0.941167 7.92686 0.880291C8.35873 0.828793 8.93715 0.79377 9.36534 0.826421C9.82353 0.857522 10.2791 0.919386 10.7291 1.01159C11.166 1.11468 11.5956 1.24694 12.015 1.40749C12.4289 1.57054 12.8278 1.7697 13.207 2.0027C13.5612 2.22136 13.9 2.46428 14.2209 2.72952C14.5229 2.98412 14.8062 3.25982 15.0693 3.55458C15.3013 3.82095 15.5439 4.14036 15.7322 4.40878C15.9257 4.69102 16.0987 4.98671 16.2499 5.29379C16.3841 5.56315 16.5182 5.87079 16.6114 6.12072C16.7046 6.37046 16.7915 6.65924 16.8512 6.88152C16.911 7.10361 16.9642 7.36027 16.9943 7.54949C17.0244 7.73852 17.0483 7.93222 17.0652 8.08035C17.0819 8.22847 17.0875 8.37697 17.0929 8.47989C17.0983 8.583 17.0974 8.682 17.0959 8.73542C17.097 8.76232 17.0951 8.78903 17.0907 8.81555C17.0847 8.78922 17.0816 8.76232 17.0816 8.73542C17.0778 8.68331 17.0741 8.58431 17.0635 8.48195C17.0527 8.37958 17.044 8.23314 17.0252 8.08427C17.0064 7.93558 16.9776 7.74767 16.9444 7.55845C16.9111 7.36923 16.8555 7.1208 16.7939 6.89833C16.7322 6.67586 16.644 6.39325 16.5474 6.14556C16.4509 5.89769 16.3177 5.59341 16.183 5.32648C16.0311 5.02369 15.8581 4.7323 15.6652 4.45417C15.4737 4.18649 15.2356 3.87624 15.0023 3.60912C14.7407 3.31885 14.459 3.04744 14.1593 2.79696C13.8408 2.53526 13.5048 2.29628 13.1534 2.08147C12.7787 1.85196 12.3844 1.65648 11.9751 1.49737C11.5597 1.33905 11.134 1.20968 10.7009 1.11023C10.2901 1.01934 9.74861 0.939205 9.3184 0.928427C8.85501 0.916267 8.39131 0.93573 7.93055 0.986668C7.453 1.04672 6.98171 1.14925 6.52223 1.29303C6.07544 1.44233 5.6394 1.6223 5.21721 1.83168C4.82757 2.02796 4.37323 2.32925 4.02283 2.58046C3.67243 2.83151 3.24525 3.2277 2.95821 3.53721C2.65213 3.87362 2.36926 4.23058 2.11155 4.60566C1.85592 4.98391 1.63367 5.38383 1.44729 5.80075C1.29206 6.16312 1.10897 6.63981 1.01138 7.00275C0.905376 7.39557 0.824073 7.79474 0.767962 8.19784C0.72638 8.549 0.688148 9.01916 0.697209 9.34754C0.706251 9.67573 0.730734 10.079 0.767292 10.3756C0.803831 10.6723 0.879608 11.0404 0.934938 11.2997C0.990269 11.559 1.1026 11.8862 1.17537 12.104C1.24813 12.3218 1.37185 12.6046 1.44964 12.7793C1.52744 12.9541 1.62904 13.148 1.69743 13.2793C1.76584 13.4106 1.85805 13.5601 1.90902 13.6469C1.95998 13.7338 2.03341 13.8399 2.06294 13.8825C2.07674 13.9045 2.09233 13.9254 2.10954 13.9448C2.10954 13.9402 2.0968 13.923 2.0787 13.891C2.06058 13.8589 2.02739 13.8055 1.98815 13.7392C1.94893 13.6729 1.87918 13.5462 1.82552 13.4469C1.77189 13.3477 1.69308 13.1891 1.63105 13.0581C1.56902 12.9272 1.48787 12.7382 1.42013 12.5764C1.35241 12.4145 1.26052 12.1528 1.20251 11.9583C1.14452 11.7637 1.05935 11.4781 1.01576 11.2556C0.972167 11.0331 0.906436 10.7201 0.881618 10.473C0.856818 10.2258 0.823609 9.8911 0.822604 9.62324C0.821599 9.3552 0.829655 9.00552 0.856148 8.72235C0.882641 8.43917 0.936278 8.0796 0.990269 7.78671C1.05702 7.45497 1.14482 7.12771 1.25315 6.80718C1.35576 6.51447 1.49793 6.16443 1.62971 5.87397C1.93723 5.23439 2.32523 4.63722 2.78418 4.09702C3.00247 3.84952 3.27005 3.57588 3.51248 3.35023C3.77492 3.11207 4.05369 2.89278 4.34673 2.69385C4.61868 2.5093 4.95298 2.29761 5.24538 2.1552C5.53777 2.01281 5.86906 1.8667 6.16915 1.75929C6.48004 1.64445 6.79873 1.5522 7.12279 1.48323C7.42657 1.42365 7.75719 1.36776 8.05326 1.33881C8.34936 1.30987 8.66991 1.30649 8.95191 1.30649C9.23888 1.30961 9.52534 1.3321 9.8093 1.37383C10.0722 1.41289 10.3458 1.46002 10.5852 1.51893C10.8246 1.57784 11.0697 1.64686 11.2823 1.72093C11.495 1.79499 11.7085 1.87309 11.8909 1.95658C12.0734 2.04006 12.2473 2.1249 12.401 2.20705C12.5545 2.28918 12.6946 2.37331 12.819 2.44747C12.9435 2.52144 13.0538 2.59653 13.1459 2.66396C13.2382 2.7312 13.3136 2.7878 13.3737 2.83226C13.4337 2.87672 13.483 2.91781 13.5128 2.94433C13.5288 2.95722 13.5437 2.97142 13.5575 2.98674C13.5392 2.97777 13.5221 2.96638 13.5069 2.95311C13.4732 2.93126 13.427 2.89577 13.3645 2.85206C13.3022 2.80835 13.2244 2.75437 13.1325 2.69011C13.0406 2.62586 12.9314 2.5616 12.8099 2.48371C12.6886 2.406 12.547 2.33093 12.3936 2.25149C12.2399 2.17203 12.0693 2.09191 11.8886 2.00943C11.7078 1.92696 11.5004 1.85119 11.2903 1.7778C11.0805 1.70441 10.8421 1.63642 10.6047 1.57953C10.3673 1.52263 10.1017 1.47449 9.84015 1.43913C9.5786 1.40379 9.2909 1.38291 9.00991 1.36946C8.71215 1.35878 8.41399 1.36912 8.11765 1.40043C7.82459 1.43006 7.50236 1.47685 7.20158 1.53744C6.88266 1.60215 6.56887 1.69012 6.26271 1.8007C5.96562 1.90876 5.64171 2.04479 5.35166 2.18482C5.04418 2.33551 4.74789 2.50818 4.4651 2.70151C4.18489 2.89446 3.91451 3.10143 3.65499 3.32165C3.39155 3.55122 3.14418 3.79872 2.91462 4.06228C2.68398 4.32416 2.47114 4.60117 2.27752 4.89145C2.10249 5.16285 1.91505 5.48376 1.77053 5.76451C1.61752 6.06767 1.485 6.38092 1.37386 6.70201C1.27326 6.99229 1.17503 7.3386 1.10729 7.62626C1.0341 7.93801 0.981227 8.25444 0.949023 8.5731C0.924874 8.85385 0.902418 9.19362 0.904762 9.45886C0.907106 9.72411 0.923534 10.0491 0.946678 10.2942C0.969823 10.5393 1.01911 10.8439 1.0637 11.0634C1.1083 11.2829 1.17436 11.5657 1.23405 11.7562C1.29373 11.9467 1.36348 12.1602 1.42283 12.3235C1.48218 12.4867 1.56231 12.6692 1.6173 12.8009C1.6723 12.9324 1.75142 13.083 1.80273 13.1837C1.85403 13.2843 1.9211 13.4015 1.95864 13.4682C1.9962 13.5348 2.04919 13.623 2.07031 13.6549C2.09142 13.6869 2.10383 13.7031 2.10854 13.7031C2.11323 13.7031 2.11222 13.7031 2.11524 13.7031C2.11825 13.7031 2.11925 13.7031 2.12229 13.7031C2.12495 13.7028 2.12766 13.7028 2.13032 13.7031C2.13334 13.7031 2.13637 13.7031 2.13805 13.7061C2.14099 13.7067 2.14376 13.708 2.14608 13.7099L2.15447 13.7136C2.15682 13.7158 2.1605 13.7183 2.16285 13.7207C2.16595 13.7218 2.1688 13.7235 2.17124 13.7257C2.17325 13.728 2.17726 13.731 2.17929 13.7334C2.18288 13.7353 2.18627 13.7375 2.18934 13.7401C2.19174 13.7435 2.19444 13.7465 2.19739 13.7493C2.20069 13.7517 2.20353 13.7549 2.20577 13.7582L2.2155 13.7666C2.21832 13.7702 2.22136 13.7734 2.22456 13.7765C2.22722 13.7801 2.23025 13.7833 2.2336 13.7863C2.2336 13.7887 2.23898 13.7917 2.24199 13.7954C2.24519 13.7984 2.2482 13.8018 2.25103 13.8051C2.25418 13.8083 2.25687 13.812 2.25909 13.816C2.26311 13.8189 2.26612 13.8227 2.26982 13.8257C2.27245 13.8287 2.27524 13.8315 2.27819 13.8341C2.28093 13.8378 2.28396 13.8414 2.28725 13.8445C2.28926 13.8475 2.29328 13.85 2.29529 13.8529L2.30536 13.8613C2.30737 13.8634 2.3114 13.8664 2.31341 13.8688C2.31542 13.8711 2.31944 13.874 2.32245 13.8761C2.32491 13.8789 2.32774 13.8813 2.33085 13.8832C2.33367 13.8854 2.33671 13.8875 2.33991 13.8894C2.34219 13.8916 2.34512 13.8931 2.34828 13.8937C2.35029 13.8961 2.3533 13.8966 2.35566 13.8983C2.35851 13.8989 2.36117 13.9002 2.36337 13.9021C2.36638 13.9017 2.36941 13.9017 2.37243 13.9021C2.37358 13.9026 2.37485 13.9028 2.37611 13.9028C2.37738 13.9028 2.37864 13.9026 2.37979 13.9021C2.37979 13.9 2.36941 13.8802 2.34962 13.8432C2.32984 13.8061 2.29529 13.7455 2.25239 13.6691C2.20947 13.5927 2.14173 13.4687 2.08472 13.3553C2.02772 13.2419 1.94859 13.08 1.88353 12.9324C1.81849 12.7851 1.71589 12.5594 1.6552 12.3713C1.59449 12.183 1.51738 11.9535 1.45635 11.7336C1.39533 11.5138 1.33362 11.2237 1.28869 10.9711C1.24376 10.7186 1.21023 10.4016 1.18811 10.1225C1.16649 9.80873 1.16526 9.4938 1.18441 9.1798C1.20487 8.87682 1.24476 8.52902 1.29674 8.21222C1.35579 7.87245 1.43756 7.53697 1.54152 7.20803C1.64973 6.86695 1.78091 6.53353 1.93418 6.21019C2.09196 5.88013 2.27187 5.56128 2.47269 5.25588C2.67786 4.94618 2.905 4.65179 3.15235 4.37515C3.40188 4.0974 3.67153 3.8385 3.95912 3.60072C4.24567 3.362 4.5499 3.14532 4.86915 2.95274C5.19105 2.76352 5.50625 2.58812 5.8533 2.45046C6.20033 2.31276 6.52392 2.19022 6.88303 2.10706C7.24216 2.0239 7.56506 1.95186 7.92249 1.92324C8.26757 1.89509 8.61384 1.88476 8.95996 1.89227C9.31036 1.89834 9.60275 1.94749 9.93471 2.00169C10.2399 2.05409 10.5406 2.12972 10.8343 2.22792C11.111 2.31149 11.3807 2.41646 11.6412 2.54199C11.8884 2.65929 12.1297 2.7893 12.3638 2.93145C12.5759 3.06201 12.7807 3.20397 12.9777 3.35677C13.1528 3.49126 13.3208 3.63509 13.4806 3.7877C13.6209 3.91714 13.7545 4.05369 13.881 4.19658C14.0114 4.34415 14.1009 4.45753 14.2042 4.58548C14.3074 4.71343 14.3625 4.80627 14.4363 4.90938C14.51 5.0123 14.5409 5.07506 14.5885 5.14903C14.6362 5.22319 14.6449 5.24728 14.667 5.28614C14.6791 5.30519 14.6896 5.32536 14.6985 5.34628C14.6525 5.2753 14.6237 5.2286 14.5606 5.14062C14.4976 5.05283 14.4602 4.98708 14.3796 4.88584C14.299 4.78441 14.2425 4.7026 14.1469 4.58922C14.0512 4.47584 13.9735 4.3873 13.8598 4.26476C13.7461 4.14223 13.6496 4.04752 13.5186 3.91995C13.3984 3.80413 13.2719 3.69523 13.1396 3.59381C13.0004 3.47744 12.8548 3.36891 12.7037 3.2686C12.526 3.15279 12.3684 3.05604 12.1766 2.9434C11.9964 2.84104 11.8105 2.74876 11.6204 2.66657C11.4094 2.56963 11.2408 2.51005 11.0131 2.43085C10.7854 2.35183 10.6003 2.30637 10.3592 2.24643C10.1312 2.19368 9.90065 2.15254 9.66846 2.12322C9.43951 2.08614 9.20796 2.06769 8.97605 2.068C8.71819 2.068 8.50359 2.06262 8.24508 2.08855C7.99873 2.10742 7.7536 2.13968 7.51073 2.18516C7.26796 2.23081 7.02776 2.28937 6.79116 2.36061C6.55473 2.43103 6.32216 2.51378 6.09438 2.60867C5.86813 2.70281 5.64677 2.80854 5.43114 2.92509C5.0125 3.15354 4.61758 3.42345 4.25218 3.73035C4.07658 3.8768 3.90869 4.03239 3.74921 4.1964C3.5938 4.35255 3.44662 4.51693 3.30828 4.68859C3.17114 4.86492 3.04841 5.02986 2.92871 5.20357C2.81645 5.36664 2.71334 5.53588 2.61989 5.71053C2.52779 5.87023 2.44452 6.03498 2.37042 6.20384C2.29799 6.37214 2.23393 6.52437 2.17693 6.68016C2.11992 6.83613 2.07633 6.97809 2.03274 7.11781C1.98915 7.25753 1.96368 7.38716 1.93217 7.51213C1.90063 7.6369 1.88858 7.74506 1.87112 7.84872C1.85369 7.95239 1.84699 8.04093 1.84028 8.1248C1.8331 8.19261 1.83031 8.26079 1.83191 8.32915C1.83098 8.37566 1.83399 8.42217 1.84095 8.46812C1.93349 7.89505 2.09622 7.33561 2.32549 6.80269C2.57066 6.23242 2.88679 5.69558 3.26636 5.20488C3.64298 4.69662 4.09948 4.25318 4.61801 3.89193C5.14826 3.50359 5.72965 3.19109 6.34552 2.9632C7.02655 2.69982 7.51477 2.6266 8.24642 2.57598C8.97806 2.52555 9.41698 2.59317 10.1081 2.74428C10.7991 2.89558 11.1264 3.04464 11.6968 3.36013C12.267 3.67562 12.518 3.86914 12.9474 4.26906C13.377 4.66898 13.5262 4.87874 13.7988 5.25849C14.0715 5.63824 14.1377 5.80859 14.2763 6.07682C14.3454 6.20888 14.4064 6.34468 14.4594 6.48384C14.4732 6.51354 14.5245 6.65214 14.6585 7.02554C14.7926 7.39893 14.8164 7.59282 14.8996 8.13825C14.9828 8.68368 14.9597 8.89065 14.9057 9.53003C14.8791 9.85879 14.852 10.0596 14.8008 10.2608L14.7887 10.2585C14.742 10.4248 14.617 10.6224 14.5305 10.8742C14.3374 11.4465 14.2073 11.4717 13.927 11.9111C13.6466 12.3504 13.5768 12.4557 13.244 12.8063C12.911 13.1568 12.8483 13.224 12.4918 13.4816C12.1353 13.7392 12.0224 13.8085 11.6819 13.9865C11.3417 14.1647 11.2646 14.1886 10.9594 14.299C10.6543 14.4094 10.5497 14.4253 10.3025 14.4875C10.113 14.5429 9.92031 14.5865 9.72547 14.618C9.58599 14.6423 9.44683 14.6606 9.30969 14.6743H9.30666C9.01259 14.738 8.78056 14.7447 8.59749 14.7137C7.8645 14.5919 7.91278 13.8722 7.91881 13.8014C7.91896 13.7997 7.91896 13.7978 7.91881 13.796C7.92887 13.7552 7.9376 13.7145 7.94463 13.6729C8.00632 13.3172 8.15252 12.9752 8.20517 12.619C8.24508 12.3478 8.35371 12.266 8.61291 12.2673C9.68591 12.2764 10.7589 12.2551 11.8289 12.2787C12.2042 12.2865 12.7195 11.822 12.7623 11.4323C12.801 11.0897 12.9184 10.7591 12.9954 10.4188C13.0961 9.97702 13.222 9.54348 13.1822 9.0836C13.1296 8.46569 12.4734 7.92101 11.9351 7.91877C11.0825 7.91503 10.2305 7.91877 9.37741 7.91877H6.92595C6.47395 7.91877 6.47094 7.9156 6.52895 7.46188C6.52975 7.44432 6.53142 7.42695 6.53397 7.40977C6.63791 6.91047 6.71572 6.84678 7.22707 6.84678C8.41373 6.84678 9.60041 6.84472 10.7871 6.8492C10.9376 6.8492 11.0929 6.84005 11.1305 6.67885C11.227 6.26511 11.2981 5.84632 11.3776 5.4294C11.4138 5.23794 11.3441 5.16621 11.1394 5.16696C9.63661 5.17425 8.13341 5.15538 6.63055 5.18041C6.24024 5.18751 5.85228 5.29379 5.55754 5.62367C5.21185 6.00958 5.04452 6.47618 4.95566 6.95829C4.83429 7.62383 4.67903 8.28021 4.50601 8.9323C4.41179 9.28477 4.34539 9.64098 4.26928 9.99663C4.17976 10.415 4.01176 10.8088 4.17808 11.2651C4.35747 11.757 4.69579 12.0487 5.14177 12.2441C5.25006 12.2916 5.38418 12.3091 5.42208 12.0926C5.4717 11.805 5.53877 11.5186 5.60214 11.2341C5.70005 10.7965 5.81674 10.3605 5.92236 9.92323C6.02028 9.51621 6.03838 9.5192 6.46389 9.5192C7.73808 9.5192 9.01226 9.5192 10.2865 9.5192C10.6201 9.5192 10.954 9.51303 11.2884 9.5192C11.5046 9.52349 11.6304 9.68077 11.5506 9.86383C11.4992 9.98038 11.4834 10.0954 11.4611 10.2163C11.3939 10.5931 11.2914 10.6711 10.9004 10.6719C10.3192 10.6719 9.73911 10.6719 9.16013 10.6719C8.50091 10.6719 7.84169 10.6695 7.1818 10.6719C7.08623 10.6719 6.96854 10.6325 6.93233 10.792C6.83174 11.2296 6.74489 11.674 6.60405 12.0993C6.52392 12.3407 6.50984 12.59 6.43641 12.8321C6.34519 13.1351 6.25165 13.4497 6.20939 13.7633C6.20569 13.7978 6.20569 13.8326 6.20939 13.8671C6.20925 13.8681 6.20925 13.869 6.20939 13.8701C6.20952 13.8716 6.20952 13.8729 6.20939 13.8744C6.21542 13.9011 6.2379 14.0048 6.28551 14.1597C6.5152 14.9091 7.2512 16.3141 9.44984 16.7518C9.44984 16.7518 9.45354 16.7518 9.45589 16.7518C9.63896 16.8024 13.8233 17.8908 16.8693 13.4446C17.0481 13.1837 17.2228 12.9033 17.3934 12.6029C17.5323 12.3188 17.654 12.0265 17.7575 11.7276C17.8778 11.3789 17.951 10.8372 18.0211 10.3439C18.0228 10.3366 18.0235 10.3288 18.0248 10.3215C18.1206 9.80237 18.0989 9.67909 18.0942 9.23677ZM10.4112 16.8726C10.6949 16.8887 10.9794 16.8849 11.2626 16.8612C10.7123 16.9242 10.5792 16.9128 10.4112 16.8726ZM17.1 12.0399C17.0499 12.1457 17.0131 12.2258 16.987 12.2803C16.9703 12.3142 16.9483 12.3592 16.934 12.3855L17.1091 12.0151L17.111 12.0175C17.105 12.0248 17.102 12.033 17.1 12.0399ZM17.1722 11.8825L17.143 11.943C17.1601 11.9055 17.1764 11.8644 17.1956 11.8229L17.1722 11.8825ZM17.3671 11.3894L17.3478 11.4372C17.3642 11.3933 17.3813 11.3449 17.398 11.2958L17.3671 11.3894Z" fill="#F0F0F0"/>
</svg>
